<svg xmlns="http://www.w3.org/2000/svg" style="display:none;">

	<!-- Main logo -->
	<symbol id="logo" Viewbox="0 0 53.4 55">
		<path d="M38.55.3a15.22,15.22,0,0,0-14,21.3l.14-.15.15-.15.15-.15.15-.15.15-.15.15-.15.15-.15.15-.15.15-.15.15-.15.15-.15.15-.15.15-.15.15-.15.15-.15.15-.15.15-.15.15-.15.15-.15.15-.15.15-.15.15-.15.15-.15.15-.15.15-.15.15-.15.15-.15.15-.15.15-.15L29,17l.15-.15.15-.15.15-.15.15-.15.15-.15.15-.15.15-.15.15-.15.15-.15.15-.15.15-.15.15-.15.15-.15.15-.15.15-.15.15-.15.15-.15.15-.15.15-.15.15-.15.15-.15.15-.15.15-.15.15-.15.15-.15.15-.15.15-.15.15-.15.15-.15.15-.15.15-.15.15-.15.15-.15.15-.15.15-.15.15-.15a5.94,5.94,0,1,1,8.48,8.32l-.15.15-.15.15-.15.15-.15.15-.15.15-.15.15-.15.15-.15.15-.15.15-.15.15-.15.15-.15.15-.15.15-.15.15-.15.15-.15.15-.15.15-.15.15-.15.15-.15.15-.15.15-.15.15-.15.15-.15.15-.15.15-.15.15-.15.15-.15.15-.15.15-.15.15-.15.15-.15.15-.15.15-.15.15-.15.15-.15.15-.15.15-.15.15-.15.15-.15.15-.15.15-.15.15-.15.15-.15.15-.15.15-.15.15-.15.15-.15.15-.15.15-.15.15-.15.15-.15.15-.15.15-.15.15-.15.15-.15.15-.15.15-.15.15-.15.15L34,29l-.15.15-.15.15-.15.15-.15.15-.15.15h0A15.22,15.22,0,1,0,38.55.3Z" transform="translate(-0.37 -0.3)" fill="#ff1940"/><path d="M30.47,15.52s0-.08,0-.12l0,0-.15.15-.15.15-.15.15-.15.15-.15.15-.15.15-.15.15-.15.15-.15.15L29,17l-.15.15-.15.15-.15.15-.15.15-.15.15-.15.15-.15.15-.15.15-.15.15-.15.15-.15.15-.15.15-.15.15-.15.15-.15.15-.15.15-.15.15-.15.15-.15.15-.15.15-.15.15-.15.15-.15.15-.15.15-.15.15-.15.15-.15.15-.15.15-.15.15-.14.15a15.26,15.26,0,0,0,8.62,8.17h0l.15-.15.15-.15.15-.15.15-.15L34,29l.15-.15.15-.15.15-.15.15-.15.15-.15.15-.15.15-.15.15-.15.15-.15.15-.15.15-.15.15-.15.15-.15.15-.15.15-.15.15-.15.15-.15.15-.15.15-.15.15-.15.15-.15.15-.15.15-.15.15-.15.15-.15.15-.15.15-.15.15-.15.15-.15.15-.15.15-.15.15-.15.15-.15.15-.15.15-.15,0,0-.55,0A8.09,8.09,0,0,1,30.47,15.52Z" transform="translate(-0.37 -0.3)" fill="#d61b3b"/><path d="M38.55,7.44a8.09,8.09,0,0,0-8.07,8s0,.08,0,.12a8.09,8.09,0,0,0,8.08,8.08l.55,0a8.08,8.08,0,0,0-.55-16.13Zm4.17,12.32-.15.15.15-.15a5.94,5.94,0,0,1-8.48-8.32l-.15.15.15-.15a5.94,5.94,0,1,1,8.48,8.32Z" transform="translate(-0.37 -0.3)" fill="#f6f6f6"/><path d="M44,17.88v0c.07-.16.13-.32.18-.49l0-.06c0-.15.09-.31.12-.47l0-.1c0-.15.05-.3.07-.46s0-.09,0-.14a5.94,5.94,0,0,0-6.53-6.52l-.15,0-.46.07-.13,0-.46.12-.09,0-.47.18-.05,0-.48.24h0c-.17.1-.33.2-.48.31h0a6,6,0,0,0-.89.77h0a5.94,5.94,0,0,0,8.48,8.32h0A6,6,0,0,0,44,17.88Z" transform="translate(-0.37 -0.3)" fill="#fff"/><path d="M29.54,34l-.14.15-.15.15-.15.15-.15.15-.15.15-.15.15-.15.15-.15.15-.15.15-.15.15-.15.15-.15.15-.15.15-.15.15-.15.15-.15.15-.15.15-.15.15-.15.15-.15.15-.15.15-.15.15-.15.15-.15.15-.15.15-.15.15-.15.15-.15.15-.15.15-.15.15-.15.15-.15.15-.15.15-.15.15-.15.15-.15.15-.15.15-.15.15-.15.15-.15.15,0,0A8.08,8.08,0,1,1,15,32l0,0,.15-.15.15-.15.15-.15.15-.15.15-.15.15-.15.15-.15.15-.15.15-.15.15-.15.15-.15.15-.15L17,30l.15-.15.15-.15.15-.15.15-.15.15-.15.15-.15.15-.15.15-.15.15-.15.15-.15.15-.15.15-.15.15-.15.15-.15.15-.15.15-.15.15-.15.15-.15.15-.15.15-.15.15-.15.15-.15.15-.15.15-.15.15-.15.15-.15.15-.15h0A15.22,15.22,0,1,0,29.54,34Z" transform="translate(-0.37 -0.3)" fill="#98a68a"/><path d="M20.77,26l-.15.15-.15.15-.15.15-.15.15-.15.15-.15.15-.15.15-.15.15-.15.15-.15.15-.15.15-.15.15-.15.15-.15.15-.15.15-.15.15-.15.15-.15.15-.15.15-.15.15-.15.15-.15.15-.15.15-.15.15-.15.15L17,30l-.15.15-.15.15-.15.15-.15.15-.15.15-.15.15-.15.15-.15.15-.15.15-.15.15-.15.15-.15.15-.15.15,0,0,.55,0a8.09,8.09,0,0,1,8.08,8.08s0,.08,0,.12l0,0,.15-.15.15-.15.15-.15.15-.15.15-.15.15-.15.15-.15.15-.15.15-.15.15-.15.15-.15.15-.15.15-.15.15-.15.15-.15.15-.15.15-.15.15-.15.15-.15.15-.15.15-.15.15-.15.15-.15.15-.15.15-.15.15-.15.15-.15.15-.15.15-.15.15-.15.15-.15.15-.15.15-.15.15-.15.15-.15.15-.15.15-.15.15-.15.15-.15.14-.15a15.26,15.26,0,0,0-8.62-8.17h0Z" transform="translate(-0.37 -0.3)" fill="#818d76"/><path d="M15.59,32,15,32a8.08,8.08,0,1,0,8.62,8.17s0-.08,0-.12A8.09,8.09,0,0,0,15.59,32Zm2.94,13.24h0L18,45.5l-.05,0-.47.18-.1,0-.46.12-.13,0-.46.07-.15,0a6,6,0,0,1-.62,0,5.92,5.92,0,0,1-3.32-1q-.24-.16-.46-.34a5.93,5.93,0,0,1-2.16-4.59h0a6,6,0,0,1,0-.61s0-.1,0-.15,0-.3.07-.45l0-.11c0-.16.07-.31.12-.46l0-.07c.05-.16.11-.32.18-.48v0a5.94,5.94,0,1,1,8.39,7.52Z" transform="translate(-0.37 -0.3)" fill="#f6f6f6"/><path d="M10.14,37.72v0c-.07.16-.12.32-.18.48l0,.07c0,.15-.08.31-.12.46l0,.11c0,.15-.05.3-.07.45s0,.1,0,.15a6,6,0,0,0,0,.61h0a5.94,5.94,0,0,0,2.16,4.59q.22.18.46.34a5.94,5.94,0,0,0,3.94,1l.15,0,.46-.07.13,0,.46-.12.1,0,.47-.18.05,0,.48-.24h0a6,6,0,0,0,1.38-1.08h0a5.94,5.94,0,0,0-8.48-8.32h0A6,6,0,0,0,10.14,37.72Z" transform="translate(-0.37 -0.3)" fill="#fff"/>
	</symbol>

</svg>