<svg xmlns="http://www.w3.org/2000/svg" style="display:none;">

	<!-- Main logo -->
	<symbol id="logo" Viewbox="0 0 53.4 55">
	</symbol>

	<!-- Tesla -->
	<symbol id="tesla" Viewbox="0 0 114.77 15.7">
		<path fill-rule="evenodd" d="M98.44 6.13l15.94.02v9.49h-2.83V9.3h-10.28v6.34h-2.83V6.13M53.42 3.1h10.1A4.29 4.29 0 0 0 66.47 0H50.59v9.29h13.14v3.25H53.56a4.53 4.53 0 0 0-2.92 3l-.05.12h16V6.21H53.42V3.1zM87.66 15.58a4.3 4.3 0 0 0 2.48-3.08H77.5L77.52 0h-2.83v15.54h13zM100.91 3.14h10.93A4.51 4.51 0 0 0 114.77 0H97.89a4.63 4.63 0 0 0 3 3.09zM28.46 3.2h10.95a4.66 4.66 0 0 0 3-3.14H25.49a4.66 4.66 0 0 0 3 3.14zM28.46 15.68h10.95a4.66 4.66 0 0 0 3-3.15H25.49a4.66 4.66 0 0 0 3 3.15zM0 0a4.68 4.68 0 0 0 3 3.15h4.6l.23.11V15.7h2.88V3.26l.26-.11h4.61A4.7 4.7 0 0 0 18.5 0H0zM28.46 9.3h10.95a4.65 4.65 0 0 0 3-3.14H25.49a4.66 4.66 0 0 0 3 3.14z"/>
	</symbol>

	<symbol id="solarcity" Viewbox="0 0 103.33 26.41">
		<g><path d="M33.45 1.15a.8.8 0 0 0-.78-.78h-2.35v20.87h3.13zM40.55 5.79a10.85 10.85 0 0 0-4.59 1v2.76a11.39 11.39 0 0 1 4.38-.94c1.51 0 3.44.47 3.44 3h-3.23c-3.34 0-5.85 1.62-5.85 5a4.75 4.75 0 0 0 5.06 5 5.94 5.94 0 0 0 4-1.3v1h3.13v-9.67c-.03-4.18-2.58-5.85-6.34-5.85zm3.18 11.43a5.47 5.47 0 0 1-3.5 1.57 2.06 2.06 0 0 1-2.3-2.19c0-.84.26-2.19 2.71-2.19h3.08v2.82zM29.12 13.67c0-3.86-2.12-7.88-7.12-7.88s-7.15 4-7.15 7.88S17 21.55 22 21.55s7.12-4.01 7.12-7.88zm-11.06 0c0-3.24 1.62-5.11 3.91-5.11s3.91 1.88 3.91 5.11-1.56 5.07-3.88 5.07-3.94-1.83-3.94-5.07zM73.43 6.16h3.13v15.08h-3.13zM86.16 18.74c-1.25 0-2.19-.47-2.19-1.88V9h4.12l-1.15-2.84H84V3a.8.8 0 0 0-.78-.78h-2.38v3.94h-2.72V9h2.71v8.51c0 1.83 1.15 4.07 4.8 4.07a8.93 8.93 0 0 0 3.76-.78c-.16-.47-.83-2-1-2.45a6.13 6.13 0 0 1-2.23.39zM51.51 11.64c0-2.56 1.93-3 3.44-3a12.78 12.78 0 0 1 1.41.1 12.22 12.22 0 0 1 .26-1.57c.1-.42.21-.78.31-1.15a9.87 9.87 0 0 0-2.24-.21c-3.76 0-6.31 1.67-6.31 5.84v9.6h3.13v-9.6zM100.15 6.16l-4.28 10.59-4.18-10.59h-3.18l5.79 14.35-2.51 5.9h2.66a.7.7 0 0 0 .68-.42l8.19-19.83zM67.06 21.55a14.74 14.74 0 0 0 4.85-1v-3.12a11.74 11.74 0 0 1-4.8 1.1c-1.1 0-6-.47-6-7.78s4.85-7.88 6-7.88a9.62 9.62 0 0 1 3.71.78c.1-.31 1.1-2.82 1.1-2.82A17.06 17.06 0 0 0 67.11 0c-1.77 0-9.5.83-9.5 10.8s7.47 10.75 9.45 10.75zM73.43 1.36h3.13v3.18h-3.13zM7.41 9.19c-2.66-.68-4-1.25-4-3 0-1.41.63-3.08 3.91-3.08a11.57 11.57 0 0 1 4.59 1c.2-.46 1.09-2.86 1.09-2.86A12.92 12.92 0 0 0 7.2 0C3.13 0 .05 2.19.05 6.26s2.87 5.11 6.37 5.9c2.82.63 4 1.3 4 3.13s-.73 3.24-4.49 3.24A12.47 12.47 0 0 1 0 17.12v3.13a11.93 11.93 0 0 0 5.79 1.36c5.95 0 8-3.18 8-6.37-.01-4.18-2.88-5.32-6.38-6.05z"/></g>
	</symbol>

	<symbol id="crayola" Viewbox="0 0 93.85 27.83">
		<path d="M21.13 13.64a2.48 2.48 0 0 1 .63-1.78 2.57 2.57 0 0 1 1.78-.59 3.53 3.53 0 0 1 .78.15 8 8 0 0 1 .93.37v-6a.34.34 0 0 1-.19 0h-.26a4.09 4.09 0 0 0-2.11.56 5.38 5.38 0 0 0-1.74 1.59V6.19h-5.83v12.34h6zM9.34 19a9.49 9.49 0 0 0 2-.19 11.09 11.09 0 0 0 2.08-.63l.19-6.56a9.24 9.24 0 0 1-2 1.19 4.93 4.93 0 0 1-1.85.41 3.3 3.3 0 0 1-2.41-.93 3.31 3.31 0 0 1-.89-2.45 3.42 3.42 0 0 1 .92-2.54 3.35 3.35 0 0 1 2.48-1 4.68 4.68 0 0 1 1.89.41A7.52 7.52 0 0 1 13.53 8V1.52a10.08 10.08 0 0 0-2-.67A9.65 9.65 0 0 0 9.41.63a10.33 10.33 0 0 0-3.74.67 8 8 0 0 0-3 1.93 9.31 9.31 0 0 0-2 3A9.74 9.74 0 0 0 0 9.82a9.11 9.11 0 0 0 1.19 4.67 9.45 9.45 0 0 0 3.52 3.41 9.24 9.24 0 0 0 2.15.82 10.65 10.65 0 0 0 2.48.28zM56.11 12.38a7.43 7.43 0 0 0 .19 1.56c.11.37.26.74.41 1.11a6.27 6.27 0 0 0 1.71 2.22 6.53 6.53 0 0 0 2.26 1.3 7.74 7.74 0 0 0 2.67.41 8 8 0 0 0 2.65-.41 6.62 6.62 0 0 0 2.22-1.3A6.16 6.16 0 0 0 70 15a6.3 6.3 0 0 0 0-5.34 6 6 0 0 0-1.67-2.19A6.54 6.54 0 0 0 66 6.23a8 8 0 0 0-2.71-.45 7.75 7.75 0 0 0-2.67.45 6.54 6.54 0 0 0-2.26 1.3 6.15 6.15 0 0 0-1.71 2.19 10.46 10.46 0 0 0-.41 1.15 6.55 6.55 0 0 0-.13 1.51zm6.15-1.19a1.46 1.46 0 0 1 1.07-.48 1.4 1.4 0 0 1 1.08.48 1.7 1.7 0 0 1 .41 1.19 2 2 0 0 1-.41 1.22 1.44 1.44 0 0 1-2.15 0 1.79 1.79 0 0 1-.37-1.22 1.69 1.69 0 0 1 .38-1.19zM88.1 7.82a5.42 5.42 0 0 0-1.52-1.41l-.22-.11a4.46 4.46 0 0 0-5.71 1.33 7.82 7.82 0 0 0-1.37 4.82 7.56 7.56 0 0 0 1.41 4.71A4.38 4.38 0 0 0 84.28 19a3.88 3.88 0 0 0 2.15-.56.28.28 0 0 0 .15-.07 6.64 6.64 0 0 0 1.74-1.67v1.85h5.52V6.19H88.1zm-.41 5.78a1.42 1.42 0 0 1-1.11.48 1.39 1.39 0 0 1-1.11-.52 1.74 1.74 0 0 1-.47-1.25 1.81 1.81 0 0 1 .47-1.31 1.36 1.36 0 0 1 1.11-.48 1.31 1.31 0 0 1 1.11.48 1.69 1.69 0 0 1 .44 1.26 1.9 1.9 0 0 1-.44 1.34zM56.52 6.19h-6.19l-.93 3.08c-.07.26-.19.7-.33 1.26s-.33 1.3-.52 2.26a31.3 31.3 0 0 0-.78-3.3.28.28 0 0 1 0-.15l-.93-3.15h-6.51v.15l5.26 11.12-3 6.12H49l7.3-16.95zM40.25 6.19h-5.71v1.63A5.42 5.42 0 0 0 33 6.41l-.2-.11a4.41 4.41 0 0 0-5.67 1.33 7.83 7.83 0 0 0-1.41 4.82 7.35 7.35 0 0 0 1.45 4.71A4.26 4.26 0 0 0 30.73 19a3.88 3.88 0 0 0 2.15-.56.19.19 0 0 0 .15-.07 6.12 6.12 0 0 0 1.74-1.67v1.85h5.56V6.26zm-6.08 7.41a1.56 1.56 0 0 1-1.15.48 1.44 1.44 0 0 1-1.11-.52 1.9 1.9 0 0 1-.41-1.26 2 2 0 0 1 .41-1.3 1.41 1.41 0 0 1 1.09-.44 1.31 1.31 0 0 1 1.11.48 1.69 1.69 0 0 1 .44 1.26 2.08 2.08 0 0 1-.38 1.3zM71.9 0h6v18.53h-6zM50.37 22.52c16.4.31 25.76 3.3 25.79 3.27l1.37-3.15A93.74 93.74 0 0 0 51.89 19z"/><path d="M37.43 19.61a122.17 122.17 0 0 0-31.61 7.22v1h.3a173.35 173.35 0 0 1 32.65-5.08c1.13-.07 2.23-.11 3.31-.15l1.68-3.43c-2.16.1-4.28.25-6.33.44z"/>
	</symbol>

	<symbol id="ally" Viewbox="0 0 64.59 36.89">
		<path d="M24.43 0h6.48v28.88h-6.48zM34 0h6.48v28.88H34zM64.59 8L53.74 36.89h-6.87l3.43-8.31L42.27 8h6.91l4.33 12.57h.08L57.72 8zM21.48 18.55a10.41 10.41 0 0 0-10.74-10.6A10.41 10.41 0 0 0 0 18.55 10.39 10.39 0 0 0 9.72 29.1l5.55-6h-4.42a4.55 4.55 0 1 1 0-9.1 4.56 4.56 0 0 1 4.67 4.55v10.2h6z">
	</symbol>

	<symbol id="uk" Viewbox="0 0 122.29 31.84">
		<g><path d="M9.18 14.14H7.49V5h1.7V2.69h-8V5h1.7v9.18l2.3 2.26h4zm5.72 2.26h4l2.3-2.26V5H23V2.69h-8.1V5h1.73v9.18H14.9z"/><path d="M23.09 18.56l5-5h2.26v-2.3h-8.56v2.3h.86L19.23 17h-4.89v-3.46h1.73v-2.3h-8v2.3h1.71v10.31H8.05v2.33h8v-2.33h-1.71v-3.42h4.89l3.43 3.43h-.86v2.33h8.58v-2.34h-2z"/><path d="M28.94 22.72l-4.16-4.16 3.86-3.86h2.86v-4.59h-9.18v-4h1.73V1.56H13.74v4.59h1.73v4H8.58v-4h1.73V1.56H0v4.59h1.73v8.58l2.86 2.87h4v5.12h-1.7v4.59H17.2v-4.59h-1.73v-1.16h3.16l2 2v3.73h10.88v-4.57zm2 4h-9.71v-3.4L18.93 21h-4v2.3h1.73v3.39H7.45v-3.37h1.73V17H4.89l-2.56-2.53V5.56H.6V2.13h9.18v3.43H8.05v5.16h8V5.56h-1.71V2.13h9.15v3.43h-1.73v5.16h9.18v3.43h-2.56L24 18.56l4.72 4.72H31zM41.59 1.73v-.2h2.36v.2l-1 .33v4.79a2.41 2.41 0 0 1-.2 1.15 2.77 2.77 0 0 1-.63.86 3.08 3.08 0 0 1-1 .57 3.48 3.48 0 0 1-1.2.2 3.69 3.69 0 0 1-2.3-.67 2.41 2.41 0 0 1-.83-2V2l-1.19-.27v-.2h3.69v.2L38.06 2v4.62a3.54 3.54 0 0 0 .13 1.1 1.67 1.67 0 0 0 1.23 1.13 4.89 4.89 0 0 0 1.07.15 1.93 1.93 0 0 0 .93-.2 1.91 1.91 0 0 0 1-1.3 4.19 4.19 0 0 0 .13-.93V2.06l-1-.33zM49.7 9l.8.23v.17h-2.63v-.18l.77-.22V5.89a1.74 1.74 0 0 0-.27-1 1 1 0 0 0-.9-.33 2.21 2.21 0 0 0-.7.1 3.77 3.77 0 0 0-.67.3V9l.77.23v.17h-2.59v-.15l.8-.23V4.69l-.8-.53v-.07L46 3.66v1a3.12 3.12 0 0 1 2.1-1 1.46 1.46 0 0 1 .7.13 1.34 1.34 0 0 1 .47.37 1.6 1.6 0 0 1 .27.53 2 2 0 0 1 .07.63V9zM51.13 4.19v-.1l1.8-.43V9l.83.23v.17h-2.69v-.18l.86-.22V4.69zM52 1.33a.62.62 0 0 1 .53-.23.6.6 0 0 1 .47.2.66.66 0 0 1 .2.47.82.82 0 0 1-.2.53.62.62 0 0 1-.53.23.6.6 0 0 1-.47-.2.68.68 0 0 1-.2-.5.52.52 0 0 1 .2-.5zm5.59 6.75l.63-1.6.78-2.12-.78-.36v-.17h2.16V4l-.9.37-2.1 5.12h-.3l-2.2-5.22-.75-.27v-.17H57V4l-.86.27zM61.28 6a6 6 0 0 0 .1 1.13 2.93 2.93 0 0 0 .33.86 1.63 1.63 0 0 0 .6.57 1.8 1.8 0 0 0 .9.2 3.63 3.63 0 0 0 .86-.1 4.86 4.86 0 0 0 .93-.34l.07.13a6.81 6.81 0 0 1-1.1.83 2.27 2.27 0 0 1-1.13.27 2.93 2.93 0 0 1-1.1-.2 2.53 2.53 0 0 1-.86-.6 3.15 3.15 0 0 1-.57-.9 3.29 3.29 0 0 1-.2-1.16 3.48 3.48 0 0 1 .2-1.2 3.08 3.08 0 0 1 .57-1 2.33 2.33 0 0 1 .86-.63 2.91 2.91 0 0 1 1.06-.23 3.14 3.14 0 0 1 1 .17 2.37 2.37 0 0 1 .73.5 1.92 1.92 0 0 1 .43.77 2.94 2.94 0 0 1 .13 1h-3.81zM64 5.69a3 3 0 0 0-.33-1.26.93.93 0 0 0-.86-.5 1.18 1.18 0 0 0-.57.13 1.62 1.62 0 0 0-.47.37 3.16 3.16 0 0 0-.33.57 2.59 2.59 0 0 0-.17.77zm5.59-.86a.56.56 0 0 1-.47.2.7.7 0 0 1-.43-.17.78.78 0 0 1-.23-.47 1.13 1.13 0 0 0-.67.27 1.28 1.28 0 0 0-.43.53V9l.86.23v.17h-2.68v-.18l.8-.23v-4.3l-.8-.53v-.07l1.73-.43v1.2A2.61 2.61 0 0 1 68 4a1.42 1.42 0 0 1 .86-.33.9.9 0 0 1 .63.2.68.68 0 0 1 .2.5.4.4 0 0 1-.13.47zm4.32 3.63a1.88 1.88 0 0 1-1.13 1 2.3 2.3 0 0 1-.83.13 7 7 0 0 1-.86-.07 3 3 0 0 1-.83-.27v-1.6h.27a2.88 2.88 0 0 0 .73 1.23 1.23 1.23 0 0 0 .93.37 1.06 1.06 0 0 0 .81-.3 1 1 0 0 0 .3-.77.92.92 0 0 0-.1-.43.94.94 0 0 0-.3-.33 1.79 1.79 0 0 0-.43-.23l-.5-.2a4.33 4.33 0 0 1-.57-.27 2.61 2.61 0 0 1-.5-.33 2.29 2.29 0 0 1-.4-.39 1.19 1.19 0 0 1-.13-.63 1.74 1.74 0 0 1 .13-.7 1.32 1.32 0 0 1 .4-.53 1.81 1.81 0 0 1 .6-.37 2 2 0 0 1 .8-.13 6.5 6.5 0 0 1 .77.07 2.4 2.4 0 0 1 .67.17v1.4l-.23.07a3.11 3.11 0 0 0-.73-1.06 1.22 1.22 0 0 0-.78-.4.91.91 0 0 0-.67.23.8.8 0 0 0-.27.63.67.67 0 0 0 .13.43 1.43 1.43 0 0 0 .3.33 1.79 1.79 0 0 0 .43.23 3.36 3.36 0 0 1 .5.23 4.33 4.33 0 0 1 .57.27 1.86 1.86 0 0 1 .5.33 1.75 1.75 0 0 1 .37.47 1.27 1.27 0 0 1 .13.63 1 1 0 0 1-.1.77zm1-4.26v-.1l1.8-.43V9l.83.23v.17h-2.65v-.18l.86-.22V4.69zm.86-2.86a.62.62 0 0 1 .53-.23.6.6 0 0 1 .47.2.66.66 0 0 1 .2.47.82.82 0 0 1-.2.53.66.66 0 0 1-.53.23.6.6 0 0 1-.47-.2.68.68 0 0 1-.2-.5.52.52 0 0 1 .25-.51zm5 8a2.83 2.83 0 0 1-.86.17 1.24 1.24 0 0 1-1-.3 1.52 1.52 0 0 1-.27-1V4.39h-.86v-.16l1-.63.73-1.13h.2v1.4h1.86v.53h-1.86v3.35a2.37 2.37 0 0 0 0 .53.63.63 0 0 0 .23.37 1.94 1.94 0 0 0 .9.13h.33a1.49 1.49 0 0 0 .37 0v.13a2.56 2.56 0 0 1-.8.4zm3.83 1.16Q84 12 83 12a.74.74 0 0 1-.63-.23.66.66 0 0 1-.2-.47.59.59 0 0 1 .2-.43.7.7 0 0 1 .43-.17.72.72 0 0 1 .47.17 1.7 1.7 0 0 1 .4.43 3 3 0 0 0 .63-1l.37-.8-2.13-5.24-.77-.26v-.17h2.79V4l-.86.27 1.43 3.83h.07l1.33-3.73-.76-.37v-.17h2.1V4l-.87.36-2.4 6.09zM95 7.65a3.08 3.08 0 0 1-.57 1 2.78 2.78 0 0 1-.93.67 2.91 2.91 0 0 1-1.23.27 2.85 2.85 0 0 1-1.2-.23 2.77 2.77 0 0 1-.86-.63 3 3 0 0 1-.53-1 3.48 3.48 0 0 1-.17-1.2 3.43 3.43 0 0 1 .2-1.16 3.08 3.08 0 0 1 .57-1 3.16 3.16 0 0 1 .93-.67 2.9 2.9 0 0 1 1.23-.23 2.66 2.66 0 0 1 1.2.23 2.77 2.77 0 0 1 .86.63 2.69 2.69 0 0 1 .53 1 3.48 3.48 0 0 1 .17 1.2 3.38 3.38 0 0 1-.2 1.12zm-1.48-3.19a1.41 1.41 0 0 0-1.2-.67 1.3 1.3 0 0 0-1.1.7 3.91 3.91 0 0 0-.47 2.1 4.25 4.25 0 0 0 .13 1.2 2.41 2.41 0 0 0 .37.83 1.5 1.5 0 0 0 .53.5 1.38 1.38 0 0 0 .63.17 1.3 1.3 0 0 0 1.13-.67 3.94 3.94 0 0 0 .46-2.1 3.22 3.22 0 0 0-.48-2.06zm4.23-.17V9l1 .23v.17h-2.9v-.18l.83-.22V4.29h-1.13v-.2l1.13-.33v-.6a3.41 3.41 0 0 1 .27-1.53 2.44 2.44 0 0 1 .73-1A2.34 2.34 0 0 1 99.24 0a1.24 1.24 0 0 1 .77.2.63.63 0 0 1 .27.5.66.66 0 0 1-.17.47.54.54 0 0 1-.47.17 1 1 0 0 1-.57-.2 2.66 2.66 0 0 1-.57-.7 1.42 1.42 0 0 0-.6.77 4.17 4.17 0 0 0-.2 1.46v1.1h1.56v.5h-1.52zM48.6 26.32l1.83.63v.37h-5.85v-.37l1.42-.53-4.39-5.82h-1.22v6l2.16.4v.37H36.1V27l2.13-.4V14.31l-2.13-.4v-.37h6.45v.37l-2.16.4v5.59h1.46l4.79-5.29-1.64-.67v-.37h4.7v.37l-1.93.77-4.59 4.79 5.42 6.82zm3.89-4.82a8.9 8.9 0 0 0 .2 2 4.9 4.9 0 0 0 .61 1.5 2.79 2.79 0 0 0 1.06 1 3.29 3.29 0 0 0 1.56.37 5.85 5.85 0 0 0 1.53-.2 10.15 10.15 0 0 0 1.66-.67l.13.27a9.08 9.08 0 0 1-2 1.46 4.23 4.23 0 0 1-2 .5 4.94 4.94 0 0 1-1.9-.37 4.64 4.64 0 0 1-1.5-1 4.35 4.35 0 0 1-1-1.6 5.84 5.84 0 0 1-.33-2.06 6.36 6.36 0 0 1 .37-2.13 5.53 5.53 0 0 1 1-1.7 4.7 4.7 0 0 1 1.62-1.17 4.4 4.4 0 0 1 1.9-.4 4.9 4.9 0 0 1 1.76.3 3.42 3.42 0 0 1 1.26.86 3.77 3.77 0 0 1 .77 1.33 5.29 5.29 0 0 1 .23 1.66H52.5zm4.76-.63a5.07 5.07 0 0 0-.6-2.23 1.64 1.64 0 0 0-1.5-.86 2 2 0 0 0-1 .23 2.51 2.51 0 0 0-.8.67 4.42 4.42 0 0 0-.6 1 4.11 4.11 0 0 0-.22 1.32l4.72-.17zM70.46 26.65l1.43.4v.27h-4.62V27l1.36-.4v-5.37a3 3 0 0 0-.47-1.83 1.85 1.85 0 0 0-1.56-.6 4.51 4.51 0 0 0-2.43.7v7.19l1.33.4v.27h-4.59V27l1.43-.4v-7.47l-1.4-.9V18l3-.77.1.07v1.73h.1a5.7 5.7 0 0 1 3.73-1.83 3 3 0 0 1 1.26.23 2.72 2.72 0 0 1 .83.67 2.89 2.89 0 0 1 .47 1 4.22 4.22 0 0 1 .13 1.13v6.39zm6.72.57a4.24 4.24 0 0 1-1.53.27 2 2 0 0 1-1.65-.58 2.7 2.7 0 0 1-.43-1.73V18.6h-1.5v-.27l1.7-1.13 1.26-2h.37v2.43h3.29v.93h-3.3v5.89a3.9 3.9 0 0 0 .1 1 1 1 0 0 0 .43.63 3.53 3.53 0 0 0 1.6.27h1.24v.23c-.57.23-1.06.47-1.6.67zM90.19 26.68v.23l-3 .77h-.1v-1.7h-.1a5.7 5.7 0 0 1-3.69 1.83 2.4 2.4 0 0 1-2.06-.9 2.89 2.89 0 0 1-.47-1 4.22 4.22 0 0 1-.13-1.13V19.1l-1.4-.77v-.2l3.13-.77.1.07v6.29a3.13 3.13 0 0 0 .47 1.86 1.85 1.85 0 0 0 1.56.6 4.59 4.59 0 0 0 1.23-.18 6 6 0 0 0 1.2-.53V19l-1.43-.77V18l3.16-.77.1.07v8.78zm9-6.52a1.13 1.13 0 0 1-.83.37 1.05 1.05 0 0 1-.9-.4 1.31 1.31 0 0 1-.33-.9 1.74 1.74 0 0 1 .13-.7 2.31 2.31 0 0 1 .33-.57 3.71 3.71 0 0 0-.9-.1 3.62 3.62 0 0 0-1.33.23 3.25 3.25 0 0 0-1.13.77 3.61 3.61 0 0 0-.8 1.36 5.73 5.73 0 0 0-.3 2 5 5 0 0 0 .23 1.6 4 4 0 0 0 .67 1.3 3 3 0 0 0 1.06.86 3.49 3.49 0 0 0 1.46.3 5.67 5.67 0 0 0 1.53-.2 7 7 0 0 0 1.5-.6l.1.27A6.32 6.32 0 0 1 98 27.08a4.5 4.5 0 0 1-2 .53 5.24 5.24 0 0 1-2-.36 3.67 3.67 0 0 1-1.5-1 4.35 4.35 0 0 1-1-1.6 5.84 5.84 0 0 1-.33-2.06 5.35 5.35 0 0 1 .4-2.1 5 5 0 0 1 1.1-1.7 4.77 4.77 0 0 1 1.66-1.13 5.64 5.64 0 0 1 2.13-.4 3.78 3.78 0 0 1 2.16.57 1.64 1.64 0 0 1 .8 1.4.9.9 0 0 1-.2 1zm10.88 6.42l1.2.47v.27h-4.23V27l.86-.47-2.83-4h-.86v4.06l1.2.4v.27h-4.51V27l1.53-.4V13.27l-1.56-.93v-.2l3.29-.83h.1V22h1l2.83-3.36-1.13-.77v-.2h4v.27l-1.46.57-3.13 3.16 3.79 5zm6.49 2.63c-.7 1.76-1.66 2.63-2.83 2.63a1.39 1.39 0 0 1-1.1-.4 1.21 1.21 0 0 1-.33-.83.9.9 0 0 1 .33-.73 1.05 1.05 0 0 1 .77-.3 1.38 1.38 0 0 1 .83.27 3.57 3.57 0 0 1 .67.73 5.2 5.2 0 0 0 1.13-1.7l.63-1.43-3.76-9.15-1.33-.47v-.27h4.92v.27l-1.49.47 2.54 6.7h.1l2.36-6.54-1.36-.63v-.27h3.69v.27l-1.46.67-4.23 10.71z"/></g>
	</symbol>

	<symbol id="fsu" Viewbox="0 0 184.44 40.51">
		<path d="M48 25.72a2.79 2.79 0 0 1 1.82-.56 4.32 4.32 0 0 1 1.16.15c.1 0 .1.05.2.05 0 .15.05.56.1 1a.15.15 0 0 1-.2 0 1.21 1.21 0 0 0-1.37-1 1.82 1.82 0 0 0-1.87 2 2 2 0 0 0 2 2.18 1.37 1.37 0 0 0 1.37-1 .1.1 0 0 1 .15.05 2.35 2.35 0 0 1-.3.91c-.1 0-.15.05-.25.05a4 4 0 0 1-1.06.15 2.78 2.78 0 0 1-1.67-.46 2.07 2.07 0 0 1-1-1.82 2.53 2.53 0 0 1 .92-1.7zm3.8 1.82a2.3 2.3 0 0 1 2.38-2.33 2.22 2.22 0 0 1 2.33 2.28 2.26 2.26 0 0 1-2.33 2.33 2.32 2.32 0 0 1-2.38-2.27zm4 .1c0-1.11-.51-2.28-1.77-2.28-.71 0-1.57.46-1.57 1.92 0 1 .46 2.28 1.77 2.28.77.01 1.57-.56 1.57-1.91zm1.82-1.37c0-.71 0-.81-.46-.86H57c-.05-.05-.05-.15 0-.15h1.67c.05 0 .05.15 0 .15h-.15c-.41.05-.41.15-.41.86v2.33c0 .41 0 .61.15.71s.2.15.71.15a1.76 1.76 0 0 0 .81-.1 1.46 1.46 0 0 0 .46-.66.1.1 0 0 1 .15.05 4.77 4.77 0 0 1-.3.91H57c-.05 0-.05-.1 0-.15h.2c.41-.05.41-.15.41-.81v-2.42zm3.7 0c0-.71 0-.81-.46-.86h-.15c-.05-.05-.05-.15 0-.15h1.67c.05 0 .05.15 0 .15h-.15c-.41.05-.41.15-.41.86v2.33c0 .41 0 .61.15.71s.2.15.71.15a1.76 1.76 0 0 0 .81-.1 1.46 1.46 0 0 0 .46-.66.1.1 0 0 1 .15.05 4.77 4.77 0 0 1-.3.91h-3.14c-.05 0-.05-.1 0-.15h.2c.41-.05.41-.15.41-.81v-2.42zm3.7 0c0-.71 0-.81-.41-.86h-.1c-.05-.05-.05-.15 0-.15h3a3.77 3.77 0 0 1 .1.91c-.05.05-.15.05-.15 0-.1-.3-.15-.56-.51-.61a2.28 2.28 0 0 0-.66-.05h-.46c-.2 0-.2 0-.2.25v1.32c0 .2 0 .2.2.2h.41a1.28 1.28 0 0 0 .56-.05.35.35 0 0 0 .15-.25l.05-.25c.05-.05.15-.05.15 0s-.05.41-.05.66.05.51.05.66-.15.05-.15 0l-.05-.25c-.05-.1-.05-.2-.2-.25a1.27 1.27 0 0 0-.51-.05h-.41c-.2 0-.2 0-.2.2v1a1.3 1.3 0 0 0 .1.71c.1.1.2.15.81.15a2.51 2.51 0 0 0 .86-.1 1.54 1.54 0 0 0 .46-.66.1.1 0 0 1 .15.05 3.84 3.84 0 0 1-.3.91h-3.3c-.05 0-.05-.1 0-.15h.2c.41-.05.41-.15.41-.81zM72.36 29q0 .38.15.46v.1c-.1 0-.2.05-.3.05a4.7 4.7 0 0 1-1.22.15A2.6 2.6 0 0 1 69 29a2.06 2.06 0 0 1-.61-1.52 2.36 2.36 0 0 1 .61-1.56 2.83 2.83 0 0 1 2.13-.76 3 3 0 0 1 .86.1 1.26 1.26 0 0 0 .41.05c0 .2.05.56.1 1 0 .05-.15.05-.2 0a1.26 1.26 0 0 0-1.37-1A1.76 1.76 0 0 0 69 27.24c0 1.27.66 2.28 2 2.28.41 0 .66-.1.71-.2s.05-.15.05-.41v-.25c0-.56 0-.61-.46-.66H71c-.05-.05-.05-.15 0-.15h1.67a.09.09 0 0 1 0 .15h-.1c-.3.05-.3.2-.3.56V29zm1.52-2.73c0-.71 0-.81-.41-.86h-.1c-.05-.05-.05-.15 0-.15h3a3.77 3.77 0 0 1 .1.91c-.05.05-.15.05-.15 0-.1-.3-.15-.56-.51-.61a2.28 2.28 0 0 0-.66-.05h-.46c-.2 0-.2 0-.2.25v1.32c0 .2 0 .2.2.2h.41a1.28 1.28 0 0 0 .56-.05.35.35 0 0 0 .14-.23l.05-.25c.05-.05.15-.05.15 0s-.05.41-.05.66.05.51.05.66-.15.05-.15 0l-.05-.25c-.05-.1-.05-.2-.2-.25a1.27 1.27 0 0 0-.51-.05h-.41c-.2 0-.2 0-.2.2v1a1.3 1.3 0 0 0 .1.71c.1.1.2.15.81.15a2.51 2.51 0 0 0 .86-.1 1.54 1.54 0 0 0 .46-.66.1.1 0 0 1 .15.05 3.84 3.84 0 0 1-.3.91h-3.29c-.05 0-.05-.1 0-.15h.2c.41-.05.41-.15.41-.81v-2.54zm5 1.27a2.3 2.3 0 0 1 2.38-2.33 2.22 2.22 0 0 1 2.33 2.28 2.26 2.26 0 0 1-2.33 2.33 2.32 2.32 0 0 1-2.37-2.27zm4 .1c0-1.11-.51-2.28-1.77-2.28-.71 0-1.57.46-1.57 1.92 0 1 .46 2.28 1.77 2.28.82.01 1.58-.56 1.58-1.91zm2.38-.51c0 .2 0 .2.2.2h.46a1.43 1.43 0 0 0 .56-.05.35.35 0 0 0 .15-.25l.05-.25c.05-.05.15-.05.15 0s-.05.41-.05.66.05.51.05.66a.09.09 0 0 1-.15 0l-.05-.25a.51.51 0 0 0-.2-.25 1.27 1.27 0 0 0-.51-.05h-.46c-.2 0-.2 0-.2.2v.91c0 .71 0 .81.41.81h.2c.05.05.05.15 0 .15h-1.66c-.05 0-.05-.1 0-.15h.15c.41-.05.41-.15.41-.81v-2.38c0-.71 0-.81-.41-.86h-.1c-.05-.05-.05-.15 0-.15h2.89v.86c0 .05-.1.05-.15 0-.05-.3-.15-.56-.46-.61a2.28 2.28 0 0 0-.66-.05h-.41c-.2 0-.2 0-.2.25v1.42zm4.74-.85c0-.71 0-.81-.41-.86h-.1c-.05-.05-.05-.15 0-.15h3a3.77 3.77 0 0 1 .1.91c-.05.05-.15.05-.15 0-.1-.3-.15-.56-.51-.61a2.28 2.28 0 0 0-.66-.05h-.46c-.2 0-.2 0-.2.25v1.32c0 .2 0 .2.2.2h.41a1.28 1.28 0 0 0 .56-.05.35.35 0 0 0 .12-.24l.05-.25c.05-.05.15-.05.15 0s-.05.41-.05.66.05.51.05.66-.15.05-.15 0l-.05-.25c-.05-.1-.05-.2-.2-.25a1.27 1.27 0 0 0-.51-.05h-.41c-.2 0-.2 0-.2.2v1a1.3 1.3 0 0 0 .1.71c.1.1.2.15.81.15a2.51 2.51 0 0 0 .86-.1 1.54 1.54 0 0 0 .46-.66.1.1 0 0 1 .15.05 3.84 3.84 0 0 1-.3.91h-3.29c-.05 0-.05-.1 0-.15h.2c.41-.05.41-.15.41-.81v-2.54zm3.9-.15c0-.46-.05-.61-.3-.66h-.15c-.05-.05-.05-.15 0-.15.56-.05 1.11-.05 1.67-.05a4.48 4.48 0 0 1 1.47.2 2 2 0 0 1 1.37 2 2.14 2.14 0 0 1-1.16 2 3 3 0 0 1-1.47.3c-.41 0-.86-.05-1.06-.05h-.81c-.05 0-.05-.1 0-.15h.15c.41-.05.41-.15.41-.81v-2.63zm.56 2.38c0 .35 0 .56.15.71s.41.25.81.25c1.32 0 1.87-.86 1.87-2.08a1.89 1.89 0 0 0-2.08-2 1.24 1.24 0 0 0-.66.1c-.05.05-.05.2-.05.51v2.48zm7.8-1.57a5.36 5.36 0 0 0-.1-1.37c-.05-.1-.15-.1-.35-.15h-.15c-.05-.05-.05-.15 0-.15h1.47a.09.09 0 0 1 0 .15h-.15a.39.39 0 0 0-.35.15 5.36 5.36 0 0 0-.1 1.37v.76a2.31 2.31 0 0 1-.46 1.57 1.8 1.8 0 0 1-1.27.51 2.17 2.17 0 0 1-1.27-.35 1.88 1.88 0 0 1-.53-1.58v-1.57c0-.71 0-.81-.41-.86h-.15c-.05-.05-.05-.15 0-.15h1.62c.05 0 .05.15 0 .15h-.16c-.41.05-.41.15-.41.86v1.42c0 1.06.35 1.77 1.37 1.77s1.32-.76 1.32-1.77v-.76zm2.08-1.22a2.79 2.79 0 0 1 1.82-.56 4.32 4.32 0 0 1 1.16.15c.1 0 .1.05.2.05 0 .15.05.56.1 1a.15.15 0 0 1-.2 0 1.21 1.21 0 0 0-1.37-1 1.82 1.82 0 0 0-1.87 2 2 2 0 0 0 2 2.18 1.37 1.37 0 0 0 1.37-1 .1.1 0 0 1 .15.05 2.35 2.35 0 0 1-.3.91c-.1 0-.15.05-.25.05a4 4 0 0 1-1.06.15 2.78 2.78 0 0 1-1.67-.46 2.07 2.07 0 0 1-1-1.82 2.74 2.74 0 0 1 .89-1.7zm6.23 2.43c-.05-.15-.05-.15-.25-.15h-1c-.15 0-.2 0-.25.15l-.25.71a2.3 2.3 0 0 0-.15.56c0 .1.05.1.2.15h.2c.05.05.05.15 0 .15h-1.37c-.05-.05-.05-.15 0-.15h.2a.47.47 0 0 0 .41-.3c.1-.3.3-.76.61-1.47l.66-1.82c.1-.25.15-.35.1-.46a.91.91 0 0 0 .35-.25c.05 0 .1 0 .1.05l.3.91.91 2.68c.2.56.3.66.56.71h.2c.05.05.05.15 0 .15h-1.57c-.05-.05-.05-.15 0-.15h.2c.15 0 .25-.05.25-.1a2.06 2.06 0 0 0-.1-.35zm-1.32-.61c-.05.15-.05.15.15.15h.81c.2 0 .2-.05.15-.2l-.36-1.06a1.71 1.71 0 0 0-.15-.41c0 .05-.1.2-.15.41zm4.75 1.12c0 .71 0 .81.41.81h.2c.05.05.05.15 0 .15h-1.77c-.05 0-.05-.15 0-.15h.25c.41-.05.41-.15.41-.81v-3c0-.2 0-.2-.2-.2h-.35c-.3 0-.66 0-.81.15a2.38 2.38 0 0 0-.3.46.1.1 0 0 1-.15-.05 7.4 7.4 0 0 0 .25-1h.1c.05.2.25.2.56.2h2.68c.35 0 .41 0 .51-.2h.1a7.61 7.61 0 0 0-.1 1c-.05.05-.15.05-.15 0a.86.86 0 0 0-.15-.51 1.42 1.42 0 0 0-.76-.15h-.46c-.2 0-.2 0-.2.2v3.09zm2.78-2.38c0-.71 0-.81-.41-.86h-.15c-.05-.05-.05-.15 0-.15h1.67c.05 0 .05.15 0 .15h-.15c-.41.05-.41.15-.41.86v2.38c0 .71 0 .81.41.86h.15c.05.05.05.15 0 .15h-1.67c-.05 0-.05-.1 0-.15h.15c.41-.05.41-.15.41-.86zm1.72 1.27a2.3 2.3 0 0 1 2.38-2.33 2.22 2.22 0 0 1 2.33 2.28 2.26 2.26 0 0 1-2.33 2.33 2.29 2.29 0 0 1-2.4-2.28zm4 .1c0-1.11-.51-2.28-1.77-2.28-.71 0-1.57.46-1.57 1.92 0 1 .46 2.28 1.77 2.28.8 0 1.55-.57 1.55-1.92zm5.42.91v1.16c0 .05-.05.05-.1.05s-.25-.35-.86-1L125.37 27c-.2-.2-.61-.76-.76-.91a1.12 1.12 0 0 0-.05.46V28a5.78 5.78 0 0 0 .1 1.37.48.48 0 0 0 .35.1h.2c.05.05.05.15 0 .15h-1.47a.09.09 0 0 1 0-.15h.2a.31.31 0 0 0 .3-.15 6 6 0 0 0 .1-1.37V26a.51.51 0 0 0-.15-.46.57.57 0 0 0-.41-.15h-.1c-.05-.05-.05-.15 0-.15h1.06a11.17 11.17 0 0 0 1.11 1.47l.66.71c.46.51.81.91 1.11 1.22.05-.05.05-.15.05-.3v-1.4a3.91 3.91 0 0 0-.15-1.37.8.8 0 0 0-.41-.15H127c-.05-.05-.05-.15 0-.15h1.52a.09.09 0 0 1 0 .15h-.1c-.2.05-.35.1-.35.15a6 6 0 0 0-.1 1.37v1.62zm-79-12.3c0 .25.05.25.35.25H50a3.39 3.39 0 0 0 .86-.05.41.41 0 0 0 .25-.35l.1-.35a.23.23 0 0 1 .25 0c0 .2-.05.61-.05 1s.05.71.05.91a.23.23 0 0 1-.25 0l-.1-.35a.54.54 0 0 0-.3-.35 2.92 2.92 0 0 0-.76-.05h-.71c-.3 0-.35 0-.35.25v1.32c0 1 0 1.11.61 1.16l.35.05a.23.23 0 0 1 0 .25c-.61 0-1-.05-1.37-.05a10.58 10.58 0 0 0-1.27.05c-.05-.05-.1-.2 0-.25l.25-.05c.61-.05.61-.2.61-1.16V15c0-1 0-1.11-.61-1.22h-.15a.23.23 0 0 1 0-.25c.41 0 .76.05 1.16.05h1.87a8 8 0 0 0 1.37-.05 9.77 9.77 0 0 0 .05 1.27.22.22 0 0 1-.25.05c-.1-.41-.2-.76-.71-.91a4.94 4.94 0 0 0-1-.05h-.61c-.3 0-.3 0-.3.35v2zm4.6-1.26c0-1 0-1.16-.66-1.22h-.25a.23.23 0 0 1 0-.25c.56 0 .91.05 1.32.05a11.46 11.46 0 0 0 1.27-.05c.05.05.1.2 0 .25h-.25c-.61.05-.61.2-.61 1.22v3.29c0 .61.05.86.2 1s.3.2 1.11.2a4.47 4.47 0 0 0 1.27-.1 2 2 0 0 0 .66-.91c.05-.05.25 0 .25.05a12 12 0 0 1-.41 1.32c-.51 0-1.47-.05-2.53-.05H54a12.84 12.84 0 0 0-1.32.05c-.05-.05-.1-.2 0-.25l.3-.05c.61-.05.61-.2.61-1.16V15zm4.71 1.77a3.42 3.42 0 0 1 3.65-3.34 3.25 3.25 0 0 1 3.54 3.24 3.61 3.61 0 0 1-7.19.1zm6.13.2c0-1.57-.76-3.24-2.68-3.24a2.42 2.42 0 0 0-2.43 2.73c0 1.42.71 3.19 2.73 3.19A2.38 2.38 0 0 0 64.36 17zm2-2c0-.91-.05-1.06-.46-1.11l-.3-.05a.23.23 0 0 1 0-.25c.56-.05 1.27-.05 2.28-.05a3.86 3.86 0 0 1 1.72.3 1.4 1.4 0 0 1 .86 1.32 1.76 1.76 0 0 1-1.27 1.57c-.05.05 0 .15.05.2a11.8 11.8 0 0 0 2 2.53 1 1 0 0 0 .71.25c.05 0 .05.1 0 .15a1.12 1.12 0 0 1-.46.05 2.45 2.45 0 0 1-2.13-1.16c-.25-.35-.66-1-1-1.42a.73.73 0 0 0-.71-.3c-.46 0-.46 0-.46.2v1.22c0 1 0 1.11.61 1.16l.2.05a.23.23 0 0 1 0 .25c-.46 0-.81-.05-1.22-.05a11 11 0 0 0-1.27.05.17.17 0 0 1 0-.25l.25-.05c.61-.05.61-.2.61-1.16V15zm.86 1.37c0 .15 0 .25.05.3s.2.05.71.05a2 2 0 0 0 1.06-.25 1.34 1.34 0 0 0 .51-1.16A1.45 1.45 0 0 0 68 13.82c-.61 0-.66.05-.66.3v2.23zm6.5-1.34c0-1 0-1.16-.61-1.22h-.25a.23.23 0 0 1 0-.25c.51 0 .86.05 1.27.05a11.46 11.46 0 0 0 1.27-.05c.05.05.1.2 0 .25h-.25c-.61.05-.61.2-.61 1.22v3.34c0 1 0 1.11.61 1.22l.25.05a.23.23 0 0 1 0 .25c-.51 0-.86-.05-1.27-.05a11.46 11.46 0 0 0-1.27.05c-.05-.05-.1-.2 0-.25l.25-.05c.61-.05.61-.2.61-1.22zm3.44-.2c0-.66-.05-.86-.46-.91l-.2-.05a.14.14 0 0 1 0-.25c.86-.05 1.67-.05 2.53-.05a6.09 6.09 0 0 1 2.23.3 2.84 2.84 0 0 1 2.08 2.78 3.09 3.09 0 0 1-1.77 2.84 5 5 0 0 1-2.28.46c-.66 0-1.32-.1-1.67-.1a11 11 0 0 0-1.27.05c-.05-.05-.1-.2 0-.25l.25-.05c.61-.05.61-.2.61-1.16v-3.6zm.84 3.38a1.68 1.68 0 0 0 .2 1c.2.3.61.41 1.27.41a2.61 2.61 0 0 0 2.84-2.94c0-1.06-.56-2.78-3.19-2.78-.61 0-.91.05-1 .15s-.1.3-.1.71zm9.22-.56c-.05-.2-.1-.25-.41-.25h-1.54c-.25 0-.3.05-.41.2l-.35 1a2.72 2.72 0 0 0-.2.76c0 .1.05.15.3.2l.35.05a.23.23 0 0 1 0 .25 9.49 9.49 0 0 1-1.06-.05 5.51 5.51 0 0 0-1 .05c-.05-.05-.1-.2 0-.25l.35-.05a.62.62 0 0 0 .61-.46c.2-.46.46-1.06.91-2.13l1.06-2.53c.15-.35.2-.51.15-.66a1 1 0 0 0 .51-.35c.05 0 .15 0 .15.1.15.41.3.86.46 1.27l1.42 3.8c.3.81.41 1 .86 1l.25.05a.23.23 0 0 1 0 .25c-.41 0-.76-.05-1.22-.05a7.51 7.51 0 0 0-1.16.05.14.14 0 0 1 0-.25l.3-.05c.2 0 .35-.05.35-.15a1.65 1.65 0 0 0-.15-.51zm-2-.86c-.1.2-.05.2.2.2h1.27c.3 0 .3-.05.2-.3l-.56-1.52a3.67 3.67 0 0 0-.25-.61 1.94 1.94 0 0 0-.25.56zM94.38 20a3.11 3.11 0 0 1-1.57-.35 4 4 0 0 1-.25-1.32c.05-.05.2-.1.25-.05a1.78 1.78 0 0 0 1.77 1.42c.86 0 1.27-.51 1.27-1.06a1.44 1.44 0 0 0-.85-1.37l-1-.61A2 2 0 0 1 93 15c0-.91.76-1.62 2.08-1.62a6.2 6.2 0 0 1 1 .1 1 1 0 0 0 .35.05 3.44 3.44 0 0 1 .2 1.16c-.05.05-.2.1-.25.05a1.31 1.31 0 0 0-1.37-1.06c-1 0-1.22.61-1.22 1.06a1.5 1.5 0 0 0 .86 1.16l.81.46a2.07 2.07 0 0 1 1.27 1.82A2 2 0 0 1 94.38 20zm6.43-1.57c0 1 0 1.11.61 1.16l.3.05a.23.23 0 0 1 0 .25c-.56 0-.91-.05-1.32-.05s-.76 0-1.42.05c-.05-.05-.1-.2 0-.25l.35-.05c.56-.05.61-.2.61-1.16v-4.2c0-.3 0-.3-.3-.3h-.56a2 2 0 0 0-1.27.25 1.42 1.42 0 0 0-.46.66.22.22 0 0 1-.25-.05c.15-.41.3-1 .41-1.42.05 0 .15-.05.2 0 .05.3.41.3.86.3h4.1c.56 0 .66 0 .81-.25a.3.3 0 0 1 .2.05 5 5 0 0 0-.15 1.42.23.23 0 0 1-.25 0c-.05-.25-.1-.61-.25-.71a2.2 2.2 0 0 0-1.16-.25h-.71c-.3 0-.3 0-.3.3v4.2zm6.48-.76c-.05-.2-.1-.25-.41-.25h-1.52c-.25 0-.3.05-.41.2l-.35 1a2.72 2.72 0 0 0-.2.76c0 .1.05.15.3.2l.35.05a.23.23 0 0 1 0 .25 9.49 9.49 0 0 1-1.05-.08 5.51 5.51 0 0 0-1 .05c-.05-.05-.1-.2 0-.25l.35-.05a.62.62 0 0 0 .61-.46c.2-.46.46-1.06.91-2.13l1.13-2.53c.15-.35.2-.51.15-.66a1 1 0 0 0 .51-.35c.05 0 .15 0 .15.1.15.41.3.86.46 1.27l1.42 3.8c.3.81.41 1 .86 1l.25.05a.23.23 0 0 1 0 .25c-.41 0-.76-.05-1.22-.05a7.51 7.51 0 0 0-1.16.05.14.14 0 0 1 0-.25l.3-.05c.2 0 .35-.05.35-.15a1.65 1.65 0 0 0-.15-.51zm-2-.86c-.1.2-.05.2.2.2h1.27c.3 0 .3-.05.2-.3l-.56-1.52a3.67 3.67 0 0 0-.25-.61 1.94 1.94 0 0 0-.25.56zm7.24 1.62c0 1 0 1.11.61 1.16l.3.05a.23.23 0 0 1 0 .25c-.56 0-.91-.05-1.32-.05s-.76 0-1.42.05c-.05-.05-.1-.2 0-.25l.35-.05c.56-.05.61-.2.61-1.16v-4.2c0-.3 0-.3-.3-.3h-.56a2 2 0 0 0-1.27.25 1.42 1.42 0 0 0-.46.66.22.22 0 0 1-.25-.05c.15-.41.3-1 .41-1.42.05 0 .15-.05.2 0 .05.3.41.3.86.3h4.1c.56 0 .66 0 .81-.25a.3.3 0 0 1 .2.05 5 5 0 0 0-.15 1.42.23.23 0 0 1-.25 0c-.05-.25-.1-.61-.25-.71a2.2 2.2 0 0 0-1.16-.25h-.71c-.3 0-.3 0-.3.3v4.2zm4.23-3.43c0-1 0-1.11-.61-1.22H116a.23.23 0 0 1 0-.25c.46 0 .76.05 1.22.05h1.92a8 8 0 0 0 1.37-.05c.05.15.1.86.15 1.27a.23.23 0 0 1-.25 0c-.15-.46-.25-.76-.76-.91a4.94 4.94 0 0 0-1-.05H118c-.3 0-.3 0-.3.35v1.87c0 .25.05.25.35.25h.61a3.39 3.39 0 0 0 .86-.05.41.41 0 0 0 .25-.35l.1-.41a.23.23 0 0 1 .25 0c0 .2-.05.61-.05 1s.05.71.05.91a.23.23 0 0 1-.25 0l-.1-.35c-.05-.15-.1-.3-.3-.35a2.92 2.92 0 0 0-.76-.05H118c-.3 0-.35 0-.35.25v1.32c0 .51.05.81.2 1s.35.2 1.22.2a3.44 3.44 0 0 0 1.32-.15 2.06 2.06 0 0 0 .71-.91c.05-.05.2 0 .25.05a5 5 0 0 1-.46 1.32c-.91 0-1.82-.05-2.73-.05h-.91c-.46 0-.76 0-1.37.05-.05-.05-.1-.2 0-.25l.35-.05c.56-.05.61-.2.61-1.16V15zm13.92 1a5.63 5.63 0 0 0-.2-2 .6.6 0 0 0-.51-.2h-.25c-.05-.05-.05-.2 0-.2.41 0 .76.05 1.16.05a7.13 7.13 0 0 0 1.06-.05c.1.05.05.15 0 .2h-.25a.6.6 0 0 0-.51.2 7.41 7.41 0 0 0-.18 1.9V17a3.32 3.32 0 0 1-.71 2.28 2.82 2.82 0 0 1-1.92.71 3.06 3.06 0 0 1-1.92-.51 2.54 2.54 0 0 1-.81-2.23V15c0-1 0-1.16-.61-1.22h-.25c-.05-.05-.05-.2 0-.2.51 0 .86.05 1.27.05a11.46 11.46 0 0 0 1.27-.05c.05.05.1.2 0 .2h-.25c-.61.05-.61.2-.61 1.22v2c0 1.52.51 2.53 2.08 2.53s2-1.06 2-2.53v-1.05zm8.2 2.23c0 .3 0 1.42.05 1.67 0 .05-.1.1-.2.1a13.26 13.26 0 0 0-1.32-1.42L135 16.05c-.25-.3-1-1.06-1.16-1.27a1.91 1.91 0 0 0-.05.61v2.08a6.08 6.08 0 0 0 .2 2c.05.1.25.15.51.2l.3.05a.23.23 0 0 1 0 .25c-.46 0-.81-.05-1.22-.05a7.13 7.13 0 0 0-1.06.05c-.05-.05-.1-.2 0-.25l.25-.05c.25-.05.41-.1.46-.2a7.81 7.81 0 0 0 .15-1.92v-2.87a.8.8 0 0 0-.2-.66.88.88 0 0 0-.61-.2h-.15a.23.23 0 0 1 0-.25 10.66 10.66 0 0 0 1.16.05 1.26 1.26 0 0 0 .46-.05 13.89 13.89 0 0 0 1.72 2.08l1 1c.71.71 1.22 1.27 1.67 1.72.05-.05.05-.2.05-.41v-2a6.08 6.08 0 0 0-.2-2c-.05-.1-.2-.15-.61-.2h-.15a.23.23 0 0 1 0-.25c.46 0 .81.05 1.22.05a6.8 6.8 0 0 0 1.06-.05.14.14 0 0 1 0 .25h-.15c-.3.05-.51.1-.56.2a8 8 0 0 0-.09 1.94v2.28zm2.49-3.23c0-1 0-1.16-.61-1.22h-.25a.23.23 0 0 1 0-.25c.51 0 .86.05 1.27.05a11.46 11.46 0 0 0 1.27-.05c.05.05.1.2 0 .25h-.25c-.61.05-.61.2-.61 1.22v3.34c0 1 0 1.11.61 1.22l.25.05a.23.23 0 0 1 0 .25c-.51 0-.86-.05-1.27-.05a11.46 11.46 0 0 0-1.27.05c-.05-.05-.1-.2 0-.25l.25-.05c.61-.05.61-.2.61-1.22zm3.19-.41c-.25-.51-.41-.71-.81-.76h-.2a.23.23 0 0 1 0-.25c.3 0 .61.05 1.06.05a9.36 9.36 0 0 0 1.22-.05c.05.05.1.2 0 .25h-.15c-.41.05-.46.1-.46.2a8.84 8.84 0 0 0 .51 1.32c.46 1.11.91 2.18 1.47 3.24.3-.61.76-1.62 1-2.08.3-.66.76-1.72 1-2.13a.73.73 0 0 0 .1-.35c0-.05-.1-.15-.46-.2h-.2a.23.23 0 0 1 0-.25c.3 0 .66.05 1.06.05a5.81 5.81 0 0 0 1-.05.23.23 0 0 1 0 .25h-.3a.55.55 0 0 0-.51.35c-.3.46-.66 1.22-1.16 2.18l-.56 1.16c-.41.86-.86 2-1.06 2.48-.05 0-.05.05-.1.05a.19.19 0 0 1-.15-.05 12.68 12.68 0 0 0-.46-1.27zm7.14.41c0-1 0-1.11-.61-1.22h-.15a.23.23 0 0 1 0-.25c.46 0 .76.05 1.22.05h1.92a8 8 0 0 0 1.37-.05c.05.15.1.86.15 1.27a.23.23 0 0 1-.25 0c-.15-.46-.25-.76-.76-.91a5.25 5.25 0 0 0-1-.05h-.71c-.3 0-.3 0-.3.35v1.87c0 .25.05.25.35.25h.61a3.39 3.39 0 0 0 .86-.05.41.41 0 0 0 .25-.35l.1-.41a.23.23 0 0 1 .25 0c0 .2-.05.61-.05 1s.05.71.05.91a.23.23 0 0 1-.25 0l-.1-.35c-.05-.15-.1-.3-.3-.35a2.92 2.92 0 0 0-.76-.05H153c-.3 0-.35 0-.35.25v1.32c0 .51.05.81.2 1s.35.2 1.22.2a3.44 3.44 0 0 0 1.32-.15 2.06 2.06 0 0 0 .71-.91c.05-.05.2 0 .25.05a5 5 0 0 1-.46 1.32c-.91 0-1.82-.05-2.73-.05h-.91c-.46 0-.76 0-1.37.05-.05-.05-.1-.2 0-.25l.35-.05c.56-.05.61-.2.61-1.16V15zm6 0c0-.91-.05-1.06-.46-1.11l-.3-.05a.23.23 0 0 1 0-.25c.56-.05 1.27-.05 2.28-.05a3.86 3.86 0 0 1 1.72.3 1.4 1.4 0 0 1 .86 1.32 1.76 1.76 0 0 1-1.27 1.57c-.05.05 0 .15.05.2a11.8 11.8 0 0 0 2 2.53 1 1 0 0 0 .71.25c.05 0 .05.1 0 .15a1.12 1.12 0 0 1-.46.05 2.45 2.45 0 0 1-2.13-1.16c-.25-.35-.66-1-1-1.42a.73.73 0 0 0-.7-.33c-.46 0-.46 0-.46.2v1.22c0 1 0 1.11.61 1.16l.2.05a.23.23 0 0 1 0 .25c-.46 0-.81-.05-1.22-.05a11 11 0 0 0-1.27.05.17.17 0 0 1 0-.25l.25-.05c.61-.05.61-.2.61-1.16V15zm.81 1.37c0 .15 0 .25.05.3s.2.05.71.05a2 2 0 0 0 1.06-.25 1.34 1.34 0 0 0 .51-1.16 1.45 1.45 0 0 0-1.62-1.47c-.61 0-.66.05-.66.3v2.23zm6.73 3.6a3.11 3.11 0 0 1-1.57-.35 4 4 0 0 1-.25-1.32c.05-.05.2-.1.25-.05a1.78 1.78 0 0 0 1.77 1.42c.86 0 1.27-.51 1.27-1.06a1.44 1.44 0 0 0-.81-1.32l-1-.61a2 2 0 0 1-1.1-1.68c0-.91.76-1.62 2.08-1.62a6.2 6.2 0 0 1 1 .1 1 1 0 0 0 .35.05 3.44 3.44 0 0 1 .2 1.16c-.05.05-.2.1-.25.05a1.31 1.31 0 0 0-1.37-1.06c-1 0-1.22.61-1.22 1.06a1.5 1.5 0 0 0 .86 1.16l.81.46a2.07 2.07 0 0 1 1.27 1.82 2.07 2.07 0 0 1-2.31 1.82zm4-5c0-1 0-1.16-.61-1.22h-.25a.23.23 0 0 1 0-.25c.51 0 .86.05 1.27.05a11.46 11.46 0 0 0 1.27-.05c.05.05.1.2 0 .25h-.25c-.61.05-.61.2-.61 1.22v3.34c0 1 0 1.11.61 1.22l.25.05a.23.23 0 0 1 0 .25c-.51 0-.86-.05-1.27-.05a11.46 11.46 0 0 0-1.27.05c-.05-.05-.1-.2 0-.25l.25-.05c.61-.05.61-.2.61-1.22zm5.87 3.39c0 1 0 1.11.61 1.16l.3.05a.23.23 0 0 1 0 .25c-.56 0-.91-.05-1.32-.05s-.76 0-1.42.05c-.05-.05-.1-.2 0-.25l.35-.05c.56-.05.61-.2.61-1.16v-4.2c0-.3 0-.3-.3-.3h-.56a2 2 0 0 0-1.27.25 1.42 1.42 0 0 0-.46.66.22.22 0 0 1-.25-.05c.15-.41.3-1 .41-1.42.05 0 .15-.05.2 0 .05.3.41.3.86.3H177c.56 0 .66 0 .81-.25a.3.3 0 0 1 .2.05 5 5 0 0 0-.15 1.42.23.23 0 0 1-.25 0c-.05-.25-.1-.61-.25-.71a2.2 2.2 0 0 0-1.16-.25h-.71c-.3 0-.3 0-.3.3v4.2zm6.48 0c0 1 .05 1.16.61 1.22l.41.05a.23.23 0 0 1 0 .25c-.61 0-1-.05-1.37-.05a12.35 12.35 0 0 0-1.32.05c-.05-.05-.1-.2 0-.25l.3-.05c.61-.05.61-.2.61-1.22v-.51a2 2 0 0 0-.3-1.16l-1.22-2.18c-.35-.61-.51-.66-.81-.71l-.3-.05a.23.23 0 0 1 0-.25c.3 0 .71.05 1.16.05a7.15 7.15 0 0 0 1.11-.05.18.18 0 0 1 .05.25h-.15c-.35.05-.41.1-.41.15a4.27 4.27 0 0 0 .3.71 20.17 20.17 0 0 0 1.16 2.08c.3-.51.66-1.06 1-1.62a6.06 6.06 0 0 0 .66-1.27c0-.05-.2-.1-.41-.15h-.2a.23.23 0 0 1 0-.25c.35 0 .66.05 1 .05a6.46 6.46 0 0 0 1-.05.14.14 0 0 1 0 .25l-.3.05c-.51.1-.81.66-1.37 1.47l-.66 1a2 2 0 0 0-.46 1.52zM16.2 5c.05.1.05.1-.05.15l-.35.1c-.1.05-.15 0-.1-.1v-.39c0-.2.05-.41.05-.51a1.66 1.66 0 0 0 .3.41zM36 18a.43.43 0 0 0 .15.3.69.69 0 0 0 .51.1.58.58 0 0 0 .56-.66c-.05-.2-.05-.2-.25-.15l-.86.1c-.11-.07-.11-.02-.11.23zM19 34.84a.4.4 0 0 0-.41.41c0 .2.1.46.51.66a.56.56 0 0 0 .25-.51c.04-.4-.16-.56-.35-.56zm-.35 1.47a.88.88 0 0 0-.3.61.55.55 0 0 0 .46.66.48.48 0 0 0 .46-.41c.02-.46-.27-.66-.64-.87zM5.87 22.58c-.1-.56-.71-.71-1.42-.61s-1.32.56-1.22 1.11.66.76 1.37.66c.56-.09 1.4-.45 1.27-1.16zM7.7 10.63l-.35-.1a4.66 4.66 0 0 0-.46-.15 3.43 3.43 0 0 0 .3.46l.2.3q.08.15.15 0l.25-.3c.01-.16.01-.16-.09-.21zm-3 3l1.47.71a1.13 1.13 0 0 0 .51.15.52.52 0 0 0 .25-.3c.35-.71-.2-1.27-.76-1.52a1.17 1.17 0 0 0-1.72.56.55.55 0 0 0-.05.25zm35.85 6.58A20.25 20.25 0 1 1 20.25 0a20.25 20.25 0 0 1 20.26 20.25zm-.91 0A19.34 19.34 0 1 0 20.25 39.6 19.34 19.34 0 0 0 39.6 20.25zm-36.3-.51l.86.05c.15 0 .15 0 .2-.25a.73.73 0 0 0-.1-.35c-.05-.1-.2-.15-.46-.2a.64.64 0 0 0-.71.56c-.13.24-.13.24.16.24zm35.49.51A18.53 18.53 0 1 1 20.25 1.72a18.54 18.54 0 0 1 18.54 18.53zm-2.18-3.34l-1.57.2c-.41.05-.46.05-.51-.15l-.05-.1c-.05-.05-.15 0-.15 0 .05.25.05.41.1.66s.05.41.1.66c.05.05.15 0 .15 0v-.1c0-.2.05-.25.46-.3l.56-.1c.1 0 .1 0 .1.15s0 .2-.1.25-.41.25-.66.46a.9.9 0 0 0-.35.91.59.59 0 0 0 .1.35c.05 0 .1 0 .1-.05a.43.43 0 0 1 .1-.3 3.84 3.84 0 0 1 1-.86c.05-.05.05-.05.1 0a.68.68 0 0 0 .76.35.7.7 0 0 0 .61-.51 1.69 1.69 0 0 0 .05-.91c-.05-.41-.15-.76-.2-1.11-.05-.05-.15-.05-.15 0v.1c-.08.39-.14.39-.59.44zm-.86-3.14l-1.57.56c-.41.15-.41.1-.51-.05l-.1-.2a.1.1 0 0 0-.15.05c.1.3.2.51.25.71l.2.56a6.61 6.61 0 0 0 .35 1 4.37 4.37 0 0 0 .74-.06.1.1 0 0 0-.05-.15c-.56-.05-.61-.2-.76-.56s-.1-.41-.05-.51.2-.15.35-.2l.51-.2c.15-.05.15-.05.15.05l.1.3a.27.27 0 0 1-.1.41l-.1.05a.1.1 0 0 0 .05.15l.46-.15.46-.15a.1.1 0 0 0-.05-.15h-.1c-.2.05-.25 0-.35-.25l-.1-.3c-.05-.1-.05-.1.1-.15l.76-.25c.15-.05.15-.05.2.1l.1.35a.68.68 0 0 1 0 .46 1.34 1.34 0 0 1-.25.3c0 .05 0 .15.05.15.25-.1.56-.25.66-.3a5 5 0 0 1-.2-.56l-.35-.86c-.05-.2-.15-.41-.2-.61a.1.1 0 0 0-.15.05v.1c.01.2.01.25-.39.35zm-1.67-3l-1.26 1.57a2.89 2.89 0 0 1-.35.41c0 .05 0 .1.05.1s.05.1.1.1l1.22-.2.86-.1a2.71 2.71 0 0 1 .86-.05.28.28 0 0 1 .25.15l.1.1c.05 0 .15-.05.1-.1a2.2 2.2 0 0 1-.2-.35 4.7 4.7 0 0 1-.25-.51.1.1 0 0 0-.15.05l.05.15c.05.1 0 .15 0 .15a.22.22 0 0 1-.15.05c-.15.05-.71.15-1 .2l-.46.05c-.15 0-.25.05-.35.05a3 3 0 0 0 .2-.3l.66-.86c.15-.25.3-.41.35-.41s.05 0 .15.05l.05.1c.05 0 .1-.05.15-.1-.15-.25-.25-.41-.35-.56a4.45 4.45 0 0 0-.3-.51.19.19 0 0 0-.15.05l.05.2c-.02.12-.02.17-.27.52zm-1.31-1.57l-1.27 1.06c-.3.25-.35.25-.51.15l-.1-.1a.11.11 0 0 0-.1.1 4.57 4.57 0 0 0 .46.51c.15.15.25.35.41.51a.11.11 0 0 0 .1-.1l-.05-.1c-.1-.2-.1-.2.2-.51l1.27-1.06c.3-.25.35-.25.51-.15l.1.1a.11.11 0 0 0 .1-.1 4.57 4.57 0 0 0-.46-.47c-.15-.15-.3-.35-.46-.51a.11.11 0 0 0-.1.1l.05.1c.21.17.21.22-.15.47zm-2.68-2.93c0 .05-.05.1-.2.3l-.71.86a3.58 3.58 0 0 1-.56.61.33.33 0 0 1-.3-.05l-.06-.05c-.05 0-.1.1-.1.1.15.1.25.2.41.3s.25.25.46.41a.11.11 0 0 0 .1-.1l-.1-.1c-.1-.1-.15-.2-.1-.25a5.35 5.35 0 0 1 .46-.66l.57-.66c.1-.15.15-.2.2-.2v2.42a3.42 3.42 0 0 1-.05.61.86.86 0 0 0 .25.1c.1-.1.25-.35.46-.56l.66-.81a3.58 3.58 0 0 1 .56-.61.33.33 0 0 1 .3.05l.05.05c.05 0 .1-.1.1-.1-.15-.1-.25-.2-.41-.3s-.25-.25-.46-.41a.11.11 0 0 0-.1.1l.1.1c.1.1.15.2.1.25a5.35 5.35 0 0 1-.46.66l-.41.46-.15.15V7.65a7.57 7.57 0 0 1 .05-1.27 1.34 1.34 0 0 1-.3-.25 3.28 3.28 0 0 1-.49-.41.11.11 0 0 0-.1.1l.1.1a.5.5 0 0 1 .13.31zm-4.3.46a1.4 1.4 0 0 0 .71.61 1.31 1.31 0 0 0 1 .1 1.36 1.36 0 0 0 .71-.86l.2-.46a3.81 3.81 0 0 1 .41-.71.55.55 0 0 1 .3-.05h.1a.1.1 0 0 0 .05-.15c-.15-.05-.3-.15-.46-.2a3 3 0 0 0-.56-.25.1.1 0 0 0-.05.15l.1.05c.1.05.2.15.15.25a2.57 2.57 0 0 1-.3.76l-.25.51c-.25.56-.66.91-1.16.71s-.41-.86-.2-1.32l.46-1c.2-.35.2-.41.41-.35l.1.05a.1.1 0 0 0 .05-.15c-.2-.1-.41-.15-.61-.25l-.61-.3a.1.1 0 0 0-.05.15l.1.05c.15.1.2.15 0 .56l-.51 1a1.31 1.31 0 0 0-.1 1.09zm-5.11-.91c.35.05.56.05.76.1l.56.05c.35.05.81.1 1 .15a1.9 1.9 0 0 0 .25-.71.1.1 0 0 0-.15-.05c-.3.46-.46.46-.86.41s-.41-.1-.46-.15-.05-.2 0-.46l.05-.51c0-.15 0-.15.15-.1l.3.05c.25.05.3.05.3.3V5c.05.05.15.05.15 0a1.4 1.4 0 0 1 .05-.46c0-.15.05-.35.05-.46s-.15-.05-.15 0l.05.05c-.05.2-.15.25-.35.2l-.3-.05c-.1 0-.1 0-.1-.15l.1-.76c0-.15 0-.15.15-.15l.35.05c.2.05.35.1.41.2a1.21 1.21 0 0 1 .15.35c.05.05.15.05.15 0v-.73a5.27 5.27 0 0 0-.54-.09l-1-.1a3 3 0 0 1-.66-.1c-.05 0-.05.1-.05.15h.15c.2.05.2.1.15.51l-.2 1.67c-.05.41-.1.46-.3.46h-.2s-.02.18.03.18zM17.47 3.7a.19.19 0 0 0 .15.05c.1-.35.2-.51.51-.56h.25c.1 0 .1 0 .1.1l.15 2c.05.41 0 .46-.2.51l-.2.05c-.05.05 0 .15 0 .15a4.37 4.37 0 0 1 .77-.08c.2 0 .41-.05.71-.05.05-.05 0-.15 0-.15h-.2c-.2 0-.25-.05-.25-.46l-.15-2c0-.1 0-.15.1-.15h.25c.35-.05.41.2.51.46.15-.05.3-.05.3-.1a1.9 1.9 0 0 1 0-.76l-.05-.05h-.05c-.05.1-.1.1-.41.15L18.08 3c-.35.05-.35 0-.41-.05h-.05l-.05.05a5.71 5.71 0 0 0-.1.7zM15 6.73a4.78 4.78 0 0 0 .46-.15 2.23 2.23 0 0 1 .51-.1.1.1 0 0 0-.05-.15h-.15c-.15 0-.15 0-.15-.05v-.71c0-.1 0-.1.1-.1l.51-.15c.15-.05.2-.05.25 0l.2.35a2.63 2.63 0 0 1 .15.25c0 .05 0 .05-.1.1l-.15.05a.1.1 0 0 0 .05.15c.2-.05.35-.1.61-.15l.66-.15a.1.1 0 0 0-.05-.15h-.15c-.15 0-.25-.05-.41-.3L16.2 3.95a1.91 1.91 0 0 1-.35-.56c-.05-.05-.05-.05-.1-.05a.75.75 0 0 1-.3.35 2.29 2.29 0 0 1 0 .61l-.1 1.16c-.05.35-.05.56-.1.76s-.1.25-.2.3l-.1.05c-.01.06-.01.16.05.16zM11.6 5a5.17 5.17 0 0 1 .2.76.1.1 0 0 0 .15-.05c0-.35 0-.56.3-.71l.25-.1c.1-.05.1-.05.15.05l.86 1.77c.2.35.15.41 0 .56l-.15.1c0 .05 0 .15.05.15l.71-.35c.2-.1.41-.2.66-.3a.51.51 0 0 0-.05-.15l-.15.05c-.2.05-.25.05-.41-.35l-.86-1.77c-.15-.05-.15-.1-.05-.15l.25-.1c.3-.15.46 0 .66.25.05 0 .15-.05.15-.1a2.41 2.41 0 0 1-.25-.71H14v.05c0 .1-.05.15-.3.25l-1.52.71c-.3.15-.3.15-.41.1s-.1 0-.15.05zM9.77 7.34a1.06 1.06 0 0 0 1.06.3c.3-.05.71-.1.91.2a.44.44 0 0 1-.1.66 1.13 1.13 0 0 1-1.06-.1c-.05 0-.15.05-.15.1A1.61 1.61 0 0 0 11 9a1.23 1.23 0 0 0 .71-.3 1 1 0 0 0 .41-1.42A1 1 0 0 0 11 6.94l-.32.06a.6.6 0 0 1-.61-.15.42.42 0 0 1 .1-.61.69.69 0 0 1 .81.1c.05 0 .15-.05.15-.1a1.83 1.83 0 0 0-.46-.46c-.05 0-.1.05-.15.05a1 1 0 0 0-.46.25.85.85 0 0 0-.29 1.26zm-3.44 2.74c.1.05.2.25.35.51l.61 1c.2.3.3.51.41.66a.3.3 0 0 1 0 .35v.1c0 .05.1.1.15.1a2.14 2.14 0 0 1 .25-.35 2.81 2.81 0 0 1 .3-.41c0-.05-.1-.1-.1-.1l-.1.1c-.1.1-.15.1-.15.1l-.1-.1-.3-.46a.09.09 0 0 1 0-.15l.3-.41c.1-.1.1-.15.2-.1l.41.15a2 2 0 0 0 .3.1s.05.05 0 .15l-.05.15c0 .05.1.1.15.1.1-.15.2-.3.35-.51a3.86 3.86 0 0 0 .41-.56c0-.05-.1-.1-.1-.1l-.1.1c-.1.1-.25.1-.51 0l-1.77-.58c-.3-.1-.51-.15-.61-.2s-.1 0-.15.05c-.1-.15-.05.1-.15.31zm-2.48 4.25a.1.1 0 0 0 .15.05l.05-.05c.1-.2.2-.15.56.05l1.47.62c.35.15.41.2.35.41l-.05.15a.1.1 0 0 0 .15.05c.1-.25.2-.46.3-.66s.2-.35.25-.51a2.46 2.46 0 0 0 .3-1.11 1.51 1.51 0 0 0-.86-1.32A1.4 1.4 0 0 0 5 12.3a2.76 2.76 0 0 0-.56.91 3.27 3.27 0 0 0-.59 1.12zm-.71 2.53c0 .05.1.05.15.05l.05-.1c.1-.2.1-.2.51-.1l1.62.41c.41.1.46.15.41.35v.15c0 .05.1.05.15.05.05-.25.1-.46.15-.66s.1-.41.15-.66c0-.05-.1-.05-.15-.05l-.05.1c-.1.2-.1.2-.51.1l-1.57-.46c-.41-.1-.46-.15-.41-.35v-.15c0-.05-.1-.05-.15-.05-.05.25-.1.46-.15.66a5.2 5.2 0 0 0-.2.71zM3 20.66v-.1c.05-.2.1-.2.56-.2l1.57.1c.41 0 .46.05.46.25v.1c0 .05.15.05.15 0v-.66c0-.2.05-.41.05-.66-.05-.05-.15-.05-.15 0l-.05.1c-.05.2-.1.2-.51.2l-.56-.05c-.1 0-.1 0-.1-.15a.28.28 0 0 1 .15-.25l.71-.3a.89.89 0 0 0 .51-.86v-.35c-.05 0-.1-.05-.1 0a.56.56 0 0 1-.15.3 5.12 5.12 0 0 1-1.16.66c-.05 0-.1 0-.1-.05a.72.72 0 0 0-.66-.51.82.82 0 0 0-.71.35 1.79 1.79 0 0 0-.2.86v1.11c.13.16.23.16.29.11zm1.82 3.75a1.48 1.48 0 0 0 1.27-1.77 1.51 1.51 0 0 0-1.82-1.37A1.48 1.48 0 0 0 3 23.09a1.56 1.56 0 0 0 1.81 1.32zm-.16 3.39l-.05-.15c-.05-.2 0-.25.35-.41l1.57-.61c.41-.15.46-.15.56.05l.1.15c.05 0 .15 0 .15-.05a5.68 5.68 0 0 1-.25-.66l-.2-.56a8.11 8.11 0 0 1-.35-1 5.27 5.27 0 0 0-.76.1.1.1 0 0 0 .05.15c.61.05.66.15.81.56s.1.41.05.46-.15.15-.35.25l-1.47.61c-.41.15-.46.15-.56-.05l-.05-.1c-.05 0-.15 0-.15.05a3.1 3.1 0 0 1 .25.61c.1.2.15.41.25.61-.05.04.05.04.05-.01zM8.71 29a4.22 4.22 0 0 1-.41-.61 6.46 6.46 0 0 1-.35-.61c-.05 0-.1.05-.15.1l.05.15c.1.2.05.2-.3.46l-.46.35c-.1.05-.1.05-.2-.05l-.2-.3c-.15-.2-.1-.25.05-.41l.1-.1c0-.05-.05-.15-.1-.15a2.83 2.83 0 0 1-.41.25 4.67 4.67 0 0 1-.41.25c0 .05.05.15.1.15l.1-.05c.2-.1.25-.05.41.15l.2.3c.05.1.05.1-.05.2l-.68.49c-.15.1-.15.1-.25 0l-.15-.35c-.1-.2-.15-.35-.1-.46s.1-.15.2-.3-.05-.15-.1-.15c-.25.15-.51.35-.61.41a3.56 3.56 0 0 1 .35.51l.51.81c.1.2.25.35.35.56.05.05.15-.05.15-.1l-.05-.1c-.1-.2-.05-.25.3-.46L8 29c.35-.2.41-.2.51-.05l.1.1c.05.06.1.01.1-.05zm8.51 5.37l-.05-.05a3.93 3.93 0 0 1-.46.05h-.61c-.05 0-.05.15-.05.15l.2.1c.2.1.2.15.1.46L16 36.61c-.1.35-.15.41-.35.35l-.2-.05c-.05 0-.05.15-.05.15a6.58 6.58 0 0 0 .76.15 7.83 7.83 0 0 1 .76.2.1.1 0 0 0 .05-.15l-.2-.05c-.2-.05-.25-.1-.15-.51l.46-1.82a3.15 3.15 0 0 1 .14-.5zm2.13 1.67c.25-.1.56-.25.56-.61s-.3-.76-.86-.81a.88.88 0 0 0-1.06.76.72.72 0 0 0 .46.76 1 1 0 0 0-.71.76c-.05.51.41.81 1 .86.76.05 1.11-.3 1.16-.71a1 1 0 0 0-.56-1zm3.14.51a.92.92 0 0 0-.56-.76 3.78 3.78 0 0 0-1-.15c-.1 0-.15 0-.15-.15v-.1c0-.1.05-.15.1-.15l1.06-.2a.77.77 0 0 0 .2-.51c0-.05 0-.05-.05-.05l-1.27.25c-.15.05-.2.05-.2.15L20.41 36c0 .1 0 .15.15.15.51 0 1.22 0 1.27.71a.79.79 0 0 1-.41.66 2.39 2.39 0 0 1-1 .3c-.05.05-.05.2.05.2a2.87 2.87 0 0 0 1.27-.41 1 1 0 0 0 .74-1.05zm2.63.35l-.2.05c-.25.05-.25 0-.35-.35l-.46-1.77a4.51 4.51 0 0 1-.1-.56c0-.05-.05-.05-.1-.05s-.2.15-.35.25a2.71 2.71 0 0 1-.56.25.1.1 0 0 0 .05.15h.2c.2 0 .25.05.3.35l.35 1.52c.1.35.05.41-.15.51l-.2.05a.1.1 0 0 0 .05.15c.15-.05.46-.1.76-.2a6.64 6.64 0 0 1 .76-.15c.05-.04.05-.19-.01-.19zm8.51-16.66a13.37 13.37 0 1 0-13.38 13.38 13.35 13.35 0 0 0 13.37-13.37zm2 8.25a.11.11 0 0 0-.1-.1l-.1.1c-.1.1-.2.1-.41.1l-1.22-.15a.9.9 0 0 1-.51-.2l-.2-.1c-.35-.2-.35-.25-.3-.46l.05-.15c0-.05-.1-.1-.15-.1-.15.25-.25.41-.35.61s-.25.35-.41.61c0 .05.1.1.15.1l.1-.15c.15-.15.2-.15.51.05l.25.15a1.15 1.15 0 0 1 .41.46l.3.51a2.68 2.68 0 0 1 .3.66c.05.1 0 .15 0 .25l-.05.1a.1.1 0 0 0 .15.05 3 3 0 0 0 .2-.41c.1-.15.2-.25.3-.41s-.1-.1-.15-.1v.2c-.05.1-.1.1-.15.1a1.56 1.56 0 0 1-.3-.46 3.23 3.23 0 0 1-.41-.71c.1 0 .3.05.51.05l.51.1.3.05v.1l-.05.15c0 .05.1.1.15.1a2.47 2.47 0 0 1 .35-.56 2.75 2.75 0 0 1 .34-.52zm1.42-3.19a5.9 5.9 0 0 1-.66-.41c-.05 0-.1.1-.1.15.25.25.41.41.25.71l-.1.25c-.05.1-.05.1-.15.05l-1.87-.71c-.41-.15-.41-.2-.35-.41l.05-.2a.1.1 0 0 0-.15-.05c-.1.3-.2.51-.25.71a5.68 5.68 0 0 1-.25.66c0 .05.1.05.15.05l.1-.15c.1-.2.15-.2.56-.05l1.87.71c.1.05.1.05.1.15l-.1.25a.56.56 0 0 1-.71.3.1.1 0 0 0-.05.15 4.6 4.6 0 0 1 .71.35l.05-.05v-.05c-.05-.05-.05-.15.05-.41l.61-1.57c.1-.3.15-.3.2-.3l.05-.05zm.41-2.23c0-.05-.1-.05-.15-.05l-.05.1c-.1.2-.1.2-.51.15l-1.62-.35c-.41-.1-.46-.1-.46-.3v-.15c0-.05-.1-.05-.15-.05a3.48 3.48 0 0 0-.1.66c-.05.2-.1.41-.15.66 0 .05.1.05.15.05l.05-.1c.1-.2.1-.2.51-.15l1.62.35c.41.1.46.1.46.3v.15c0 .05.1.05.15.05a3.48 3.48 0 0 0 .1-.66c.06-.18.11-.39.16-.64zm.15-1.22a1.8 1.8 0 0 0 .1-.51c.05-.66-.3-1.06-.81-1.06a1.09 1.09 0 0 0-.91.61c-.15.25-.41.61-.76.56a.41.41 0 0 1-.41-.51c0-.41.46-.66.76-.76.05-.05.05-.15 0-.15a1.62 1.62 0 0 0-.76.1 1.53 1.53 0 0 0-.2.76c-.05.66.3 1.16.86 1.16a.9.9 0 0 0 .91-.61l.15-.3c.15-.2.3-.41.56-.41a.45.45 0 0 1 .41.46c0 .3-.35.51-.61.56-.05.05-.05.15 0 .15a2.1 2.1 0 0 0 .66-.05c.01.15.01.07.06.02zm-14.82-5.09h3.39l.66-1.06h-3.4zm.05 1.24l-.25-.86-.1.15h-.3l-.25.91-.15 2.38a5.17 5.17 0 0 0 1.16-.41zm-5.32-2.23l.76 1.11h4l.72-1.13zm3.95 2.43l.25-.91h-3l.25.91zm-.56.41l-.05 2.13c.15 0 .3-.05.46-.05l.1-2h-.51zm-1 0l.09 2.1h.61l.05-2.13zm-.3 0h-.51l.1 2a1.74 1.74 0 0 0 .46.05zm-1-.41l-.25-.91h-.3l-.1-.15-.25.86-.1 2.18a5.17 5.17 0 0 0 1.16.41zm-.91-1.42L17 15.7h-3.38l.66 1.06zm-2.05 12.69h.2l-.3-11.14H15zm1.11.76l-.05-.35h-1.06l-.05.35.61.46zm-.71-.76h.25l.15-11.14h-.61zm1.22-11.14h-.51l-.3 11.14h.2zm.25-1.22h-2.73l.25.81h2.23zm3.39 14.28l-.05-.39h-1.11l-.15.41.66.51zm-1.22-.76h.2l-.15-6.53a1.26 1.26 0 0 1-.41-.05zm.41 0h.3l.1-6.53H20zm1.06-6.58c-.1 0-.25.05-.41.05l-.2 6.53h.2zm2.68 5.42h.2l-.3-11.14h-.51zm1.06.76l-.05-.35H23.8l-.05.35.61.46zm-.71-.76h.25l.15-11.14H24zm1.27-11.14H25l-.3 11.14h.2zm.25-1.22H23l.25.81h2.23zm-8.3 6a7.5 7.5 0 0 0 5.67 0l-.15-2.53a7.33 7.33 0 0 1-2.73.56 7.75 7.75 0 0 1-2.73-.56zm3.44-8.71a2.81 2.81 0 0 0-.41.91h.46l.3-.46a2.83 2.83 0 0 0 .8-1.74 1.15 1.15 0 0 0-.15-.66 6.23 6.23 0 0 1-.99 1.98zm.76-2.78C21.11 12.66 20 13.57 20 15v.25h.1a9.26 9.26 0 0 1 .71-1.42 2.8 2.8 0 0 0 .81-2.18zm-2 3.7h.15v-.15a3.56 3.56 0 0 1 .75-2.17c.76-1.11 1-1.37 1-2.18A2.5 2.5 0 0 0 21 9.16a4.8 4.8 0 0 1-1.16 3 1.8 1.8 0 0 0-.3-1.72v.1c0 .71-.71 2-.71 2.68a4.36 4.36 0 0 0 .77 2.12zm-2.89-.81a4 4 0 0 0-.41.81h.41c.1-.15.2-.25.3-.41a2.37 2.37 0 0 0 .71-1.57 1.89 1.89 0 0 0-.1-.61 6.18 6.18 0 0 1-.92 1.8zm.76-2.48c-.46.86-1.52 1.72-1.52 3v.2h.1a7.56 7.56 0 0 1 .65-1.23c.46-.63.91-1.24.76-1.95zm-1.92 3.29h.15v-.15a3.16 3.16 0 0 1 .71-2c.71-1 1-1.22 1-1.92a2 2 0 0 0-.51-1.42 4 4 0 0 1-1.11 2.68 1.53 1.53 0 0 0-.31-1.51v.1c0 .61-.66 1.82-.66 2.38a4 4 0 0 0 .71 1.86zm9.37-.81a4 4 0 0 0-.41.81h.41c.1-.15.2-.25.3-.41a2.37 2.37 0 0 0 .71-1.57 1.89 1.89 0 0 0-.1-.61 6.18 6.18 0 0 1-.93 1.8zm.71-2.48c-.46.86-1.57 1.72-1.57 3v.2h.1a7.56 7.56 0 0 1 .64-1.23c.56-.63 1.01-1.24.81-1.95zm-1.87 3.29h.15v-.15a3.16 3.16 0 0 1 .71-2c.71-1 1-1.22 1-1.92a2 2 0 0 0-.51-1.42A4 4 0 0 1 24 12.56a1.53 1.53 0 0 0-.3-1.56v.1c0 .61-.66 1.82-.66 2.38a3.09 3.09 0 0 0 .71 1.86zm3.49 7.24c.05.05 0 .05 0 0s-.15 0-.2 0-.15 0-.2-.05v-.05h.05c.05 0 .05 0 .1-.1l.1-.66c-.05.1-.1.1-.15.2l-.2.25c-.05.1-.2.25-.25.35h-.05a.94.94 0 0 0-.1-.35v-.35c0-.05-.05-.2-.05-.25a2.19 2.19 0 0 1-.05.25c0 .1-.05.25-.05.35s0 .15.05.15h.05v.05a.19.19 0 0 1-.15-.05H26v-.05c.1 0 .1 0 .1-.1a3.23 3.23 0 0 0 .1-.35.86.86 0 0 0 .05-.35c0-.1 0-.1-.05-.15h-.05v-.05a8107650.58 8107650.58 0 0 1 .3.1.64.64 0 0 0 .05.3l.1.41c0 .05.05.1.05.15s.05-.1.1-.15l.2-.3c.05-.1.15-.2.2-.3a.19.19 0 0 1 .15.05h.15v.05h-.05c-.05 0-.1 0-.1.1a4 4 0 0 0-.1.71c-.1.2-.1.2 0 .2zm.86-1a.58.58 0 0 0-.66.51.53.53 0 0 0 .51.61.55.55 0 0 0 .66-.51.52.52 0 0 0-.53-.55zm0 .1a.46.46 0 0 1 .3.56c-.05.35-.2.46-.41.41a.42.42 0 0 1-.3-.56c.04-.3.19-.4.39-.35zm.71.86c0 .15 0 .2-.1.2h-.05v.05h.41v-.05H29c-.1 0-.1 0-.1-.2v-.2c0-.05 0-.05.05-.05s.05 0 .1.05a.39.39 0 0 1 .1.25.59.59 0 0 0 .35.25h.1v-.05a.16.16 0 0 1-.1-.05 1.55 1.55 0 0 1-.25-.46v-.05c.1-.05.2-.1.2-.25a.28.28 0 0 0-.15-.25c-.05-.05-.2-.05-.3-.05h-.35v.05h.05c.1 0 .1.05.05.2zm.2-.71c0-.1 0-.1.1-.1s.2.1.2.25a.24.24 0 0 1-.25.25c-.1 0-.1 0-.1-.05zm.86.1c0-.15-.05-.2-.1-.2h-.05v-.05h.2l.3-.05a.52.52 0 0 0 .2-.05c0 .05.05.15.05.2h-.05c0-.05-.05-.05-.1-.1h-.25c-.05 0-.05 0-.05.1l.05.25c0 .05 0 .05.05.05h.1c.15 0 .15 0 .15-.1V22h.05v.15a.19.19 0 0 0 .05.15h-.05v-.05c0-.05-.05-.05-.2-.05h-.1c-.05 0-.05 0-.05.05l.05.2c0 .1 0 .15.05.15s.05.05.2 0 .25-.05.3-.2h.05c0 .05 0 .2-.05.25a1.63 1.63 0 0 0-.41.05h-.2a.55.55 0 0 0-.25.05v-.05h.05c.05 0 .1 0 .05-.2zm1 .61a.39.39 0 0 1-.1-.25s.05-.05.05 0a.6.6 0 0 0 .35.2c.1-.05.15-.1.15-.2s-.1-.15-.2-.2H31c-.15-.05-.25-.1-.3-.25s.05-.3.3-.41h.25c.05.05.05.15.1.2s-.05.05-.05 0a.23.23 0 0 0-.25-.15.19.19 0 0 0-.15.2.23.23 0 0 0 .2.15l.1.05c.1.05.25.1.3.25s-.05.35-.3.41a.75.75 0 0 1-.31.06zM10 22.28a1 1 0 0 0-.2.41h-.1c0-.05-.05-.15-.05-.2l-.2-.71c-.05-.1-.05-.15-.1-.15h-.08v-.05a.3.3 0 0 1 .2.05h.2v.05h-.1a.8.8 0 0 0 .05.2l.1.3a.52.52 0 0 0 .05.2c.1-.2.25-.41.35-.61.05-.05.05-.1 0-.1h-.05v-.05h.3v.05h-.05c-.05 0-.1 0-.1.05s-.1.2-.2.35zm.86.3c0 .15 0 .2.1.2H11v.05h-.41v-.05h.05c.1 0 .1 0 .1-.2l.05-.61c0-.15 0-.2-.1-.2h-.05v-.05H11v.05c-.1 0-.1 0-.1.2zm.51 0c0 .15 0 .2-.1.2h-.05v.05h.41v-.05h-.05c-.1 0-.1 0-.1-.2v-.2c0-.05 0-.05.05-.05s.05 0 .1.05.1.15.15.2a.38.38 0 0 0 .35.2h.1v-.05a.16.16 0 0 1-.1-.05c-.1-.05-.15-.2-.3-.41v-.05c.1-.05.2-.1.2-.25a.28.28 0 0 0-.15-.25c-.05-.05-.2-.05-.3-.05a.75.75 0 0 0-.35.05v.05h.05c.1 0 .1 0 .1.2zm.2-.76c0-.1 0-.1.1-.1a.24.24 0 0 1 .25.25c0 .15-.05.25-.2.25s-.1 0-.1-.05zm.91.05c0-.15-.05-.2-.1-.2h-.08v-.05h.2l.3-.05a.52.52 0 0 0 .2-.05c0 .05.05.15.05.2H13a.39.39 0 0 0-.1-.15h-.25c-.05 0-.05 0-.05.1l.05.25c0 .05 0 .05.05.05h.1c.15 0 .15 0 .15-.1v-.05H13V22a.19.19 0 0 0 .05.15H13v-.05c0-.1 0-.1-.19-.1h-.1c-.05 0-.05 0-.05.05l.05.2c0 .1 0 .15.05.15s.05.05.2 0 .25-.1.25-.2h.05c0 .05 0 .2-.05.25a1.63 1.63 0 0 0-.41.05h-.2a.55.55 0 0 0-.25.05v-.05h.05c.05 0 .1 0 .05-.2zm1.06.66c-.05-.05-.05-.15-.1-.25h.05c.05.1.15.25.3.2s.2-.1.15-.2-.05-.15-.2-.2h-.05a.32.32 0 0 1-.25-.3.37.37 0 0 1 .3-.35H14c0 .05.05.15.05.2H14c-.05-.1-.1-.2-.25-.15s-.15.1-.15.2.05.15.2.15l.1.05c.1.05.25.1.25.3s-.1.35-.35.35-.28.05-.28 0zm4.76-.25c.05 0 .05 0 .05.05v.25c0 .05 0 .1-.05.05h-.05v.05c.05 0 .15.05.2.05s.15.05.2.05v-.05c-.1-.05-.1-.05-.1-.15l-.05-.71v-.25a.22.22 0 0 1-.15.05c0 .05-.05.05-.05.1l-.35.51q-.08.15-.15.15c-.05.05-.05.05-.1.05h-.05v.05a.19.19 0 0 1 .15.05c.05 0 .1.05.15.05v-.05h-.05c-.05 0-.05-.05 0-.1l.1-.15c.05-.05 0-.05.05-.05zm-.15-.1c-.05 0-.05 0 0-.05l.1-.15c.05-.05.05-.1.1-.1v.35c0 .05 0 .05-.05.05zm.81.46c0 .15-.05.15-.1.15h-.05v.05a.3.3 0 0 1 .2.05.3.3 0 0 1 .2.05v-.05h-.05c-.05 0-.1-.05-.05-.2l.05-.2c0-.05 0-.05.05-.05s.05 0 .1.05.05.15.1.25a.32.32 0 0 0 .3.25h.1v-.05a.16.16 0 0 1-.1-.05 2.09 2.09 0 0 1-.2-.46v-.05a.34.34 0 0 0 .25-.2.39.39 0 0 0-.1-.25.43.43 0 0 0-.3-.1c-.15 0-.25-.05-.35-.05v.05H19c.05 0 .05.05.05.2zm.3-.66c0-.05 0-.1.1-.05s.2.15.2.25-.1.2-.25.2-.1 0-.05-.05zm1.04.02c0-.05 0-.05-.05-.05h-.1c-.15 0-.2 0-.25.15h-.05a2.19 2.19 0 0 1 .05-.25c0 .05.05.05.15.05l.66-.05c.1 0 .1 0 .1-.05v.25h-.05c-.05-.15-.05-.15-.25-.15h-.1c-.05 0-.05 0-.05.05l.05.71c0 .15 0 .2.1.2h.05v.05h-.51v-.05h.05c.1 0 .1 0 .1-.2zm.91.05c-.05-.15-.05-.15-.15-.15H21v-.05a.3.3 0 0 0 .2-.05l.3-.05a.52.52 0 0 0 .2-.05c0 .05.05.15.05.2h-.05c-.05-.1-.1-.1-.15-.15h-.25c-.05 0-.05 0-.05.1l.05.25c0 .05 0 .05.05.05h.1c.15-.05.15-.05.15-.1V22h.05a.19.19 0 0 0 .05.15c0 .05.05.1.05.15h-.05v-.05c0-.05-.05-.05-.2-.05h-.1c-.05 0-.05 0-.05.05l.05.2a.22.22 0 0 0 .05.15h.2c.2-.05.25-.1.25-.25h.1v.25a2.73 2.73 0 0 1-.41.05l-.2.05a2.19 2.19 0 0 1-.25.05v-.05h.05c.05 0 .1-.05.05-.2zm1 .56a.39.39 0 0 1-.1-.25s.05-.05.05 0a.6.6 0 0 0 .35.2c.1-.05.15-.1.15-.2s-.1-.15-.2-.2h-.1c-.15-.05-.25-.1-.3-.25s.05-.3.25-.41h.2c.05.05.05.15.1.2s-.05.05-.05 0a.28.28 0 0 0-.25-.15.19.19 0 0 0-.15.2c0 .05.1.1.2.15l.1.05c.1.05.25.1.3.25s-.05.35-.3.41c-.08.07-.18.02-.23.02zm-7.44-2.13a18.26 18.26 0 0 1-3.44.51 10.38 10.38 0 0 1-2.89-.41 13 13 0 0 0 .41 2.23 2.77 2.77 0 0 0 2.18.66 22.27 22.27 0 0 0 3.86-.47zm-4.3-1.62c-.35.56-1.22.71-1.67.86a.43.43 0 0 0-.35.41 7.93 7.93 0 0 0 3 .46 4.14 4.14 0 0 0 1.32-3.34 6.51 6.51 0 0 1-1.06 1.22 12.47 12.47 0 0 0-.86-1.37 4.8 4.8 0 0 1-.37 1.79zM25.57 23a22.27 22.27 0 0 0 3.85.46 2.77 2.77 0 0 0 2.18-.66 15 15 0 0 0 .4-2.19 9.06 9.06 0 0 1-2.89.41 18.26 18.26 0 0 1-3.44-.51zm-6.43-7.7a4.42 4.42 0 0 1-.71-2.13c0-.51.71-2.08.71-2.78A5.67 5.67 0 0 0 19 9.32 4 4 0 0 1 20.05 11a3.29 3.29 0 0 0 .61-2 2.86 2.86 0 0 0-.3-1.22 4.08 4.08 0 0 1 1.42 2.94 2.54 2.54 0 0 1-.1.61 2.9 2.9 0 0 1 .51 1.82 3.27 3.27 0 0 1-.91 2.08h2a3.65 3.65 0 0 1-.66-1.87c0-.46.66-1.87.66-2.48 0-.25-.05-.51-.1-1a3.62 3.62 0 0 1 1 1.57 3 3 0 0 0 .56-1.72 2.72 2.72 0 0 0-.25-1.06 3.46 3.46 0 0 1 1.37 2.63 1.5 1.5 0 0 1-.1.51 2.79 2.79 0 0 1 .51 1.62 3 3 0 0 1-.86 1.87h2.23l-1.16 1.82h-.25l-.25.86-.1 2.13c1 .2 1.87.35 2.68.46a4.1 4.1 0 0 1-.81-4.46 3.61 3.61 0 0 0 1 1.67A15.81 15.81 0 0 1 30 16.1a6.08 6.08 0 0 0 .51 2.73c.56.56 1.37.41 1.82.86s.1 2-.25 3.39a3.08 3.08 0 0 1-2.58.91 22.88 22.88 0 0 1-3.9-.46l-.35 6.23.15.66-1 .81-1-.81.15-.66-.35-6.13a8.75 8.75 0 0 1-1.57.41l-.35 6.89.15.71-1.16.81-1.11-.86.15-.71-.37-6.88a10 10 0 0 1-1.57-.41L17 29.72l.15.66-1 .81-1-.81.15-.66-.35-6.23A22.88 22.88 0 0 1 11 24a3.08 3.08 0 0 1-2.54-1c-.35-1.42-.71-2.94-.25-3.39s1.27-.35 1.82-.86a6.08 6.08 0 0 0 .51-2.73 15.81 15.81 0 0 1 1.27 1.77 3.61 3.61 0 0 0 1-1.67 4 4 0 0 1-.81 4.49 21.26 21.26 0 0 0 2.68-.46l-.1-2.15-.25-.86h-.25l-1.16-1.82h2.18a3.65 3.65 0 0 1-.66-1.87c0-.46.66-1.87.66-2.48 0-.25-.05-.51-.1-1a3.62 3.62 0 0 1 1 1.57 3 3 0 0 0 .56-1.72 2.72 2.72 0 0 0-.25-1.06 3.46 3.46 0 0 1 1.37 2.63 1.5 1.5 0 0 1-.1.51 2.79 2.79 0 0 1 .51 1.62 3 3 0 0 1-.86 1.87h1.92zm10.48 1.77a12.47 12.47 0 0 0-.86 1.37 6.71 6.71 0 0 1-1.06-1.22 4.14 4.14 0 0 0 1.3 3.39 7.78 7.78 0 0 0 3-.46c0-.3-.2-.35-.35-.41-.51-.15-1.32-.3-1.67-.86a4.8 4.8 0 0 1-.36-1.77z"/>
	</symbol>

	<symbol id="philadelphia" Viewbox="0 0 86.38 35.11">
		<path d="M9.69,30.79a1.13,1.13,0,0,0-1.08,1.94l-.26.52a1.2,1.2,0,0,0,.44.24.94.94,0,0,0,.47.05L9.35,33a1.13,1.13,0,0,0,.34-2.2"/><path d="M28.81,6.85c.27-1-.35-1.13-.57-1.19L21.83,3.86c-.5-.14-.33-1.27-.78-1.39L16,1.06c-.46-.13-.9.92-1.39.79L8.18.05C8,0,7.34-.18,7.08.78L5.62,6a.11.11,0,0,1-.15.08L5,6c-.15,0-.3,0-.41.23a5.4,5.4,0,0,0-.46,1.18,7.82,7.82,0,0,0-.27,1.42c0,.19,0,.35.23.41l4.11,1.15A.6.6,0,0,0,9,10a11.75,11.75,0,0,1,1.93-2.92c.5-.28,3.4.2,3.4.2a3.21,3.21,0,0,0-.2.62c-.11.46.15,1.58-.12,1.73-1.44.81-4-.42-4.86,2C7,17.73,5.41,20.34,3,21.93c1.13,1.32,3.79,2.72,7.63,3.89a1.83,1.83,0,0,1,0-.36,12,12,0,0,0-.09-1.4c-.09-.85-.14-1.26-.16-1.68a4.58,4.58,0,0,1,.24-1.53l.08-.28c.29-1,1.2-3.7,1.57-4.47.06-.14.14-.11.16-.11s.1,0,.09.18c-.1.84-.79,3.63-1.08,4.61l-.08.28a3.73,3.73,0,0,0-.16,1.38c0,.36.1.8.2,1.66a12.8,12.8,0,0,1,.1,1.44,1.84,1.84,0,0,0,.1.54l.07,0c4.39,1.23,7.77,1.49,9.56.9C20,24.4,20,21.35,21.29,15c.52-2.5-2.31-2.78-3.12-4.22-.15-.26.66-1.09.81-1.54a2.58,2.58,0,0,0,.14-.63S22,9.74,22.26,10.24a11.7,11.7,0,0,1,.13,3.49.6.6,0,0,0,.48.72L27,15.6c.25.07.32-.06.41-.23A7.78,7.78,0,0,0,27.91,14a5.4,5.4,0,0,0,.22-1.25c0-.25-.08-.37-.23-.41l-.46-.13a.11.11,0,0,1-.08-.14"/><path d="M26.08,30v2.87H24.7V25.09L26.31,25a5,5,0,0,1,2.7.57,2,2,0,0,1,.85,1.77q0,2.68-3.16,2.68Zm0-3.72v2.49l.55,0A2.38,2.38,0,0,0,28,28.5a1.19,1.19,0,0,0,.44-1q0-1.21-2-1.21Z"/><path d="M34.69,32.87V29.36a1.12,1.12,0,0,0-.33-.85,1.19,1.19,0,0,0-.86-.32,1.41,1.41,0,0,0-.66.18,1.22,1.22,0,0,0-.48.41v4.09H31V25.06l1.35-.32v2.8a2,2,0,0,1,1.42-.47,2.24,2.24,0,0,1,1.66.59,2.3,2.3,0,0,1,.59,1.7v3.51Z"/><path d="M37.82,32.87v-4.6h-.73V27.18h2.07v5.69ZM38.5,25a.77.77,0,1,1-.54.23A.74.74,0,0,1,38.5,25Z"/><path d="M40.94,25.06l1.33-.32v6.4q0,1.05.63,1.25a1.09,1.09,0,0,1-1.05.58q-.9,0-.9-1.25Z"/><path d="M47.09,32.3a1.29,1.29,0,0,1-.63.49,2.4,2.4,0,0,1-.94.19,2.12,2.12,0,0,1-1.45-.46,1.64,1.64,0,0,1-.53-1.31,1.83,1.83,0,0,1,.74-1.55,3.45,3.45,0,0,1,2.11-.56,2.32,2.32,0,0,1,.55.08q0-1-1.27-1a2.82,2.82,0,0,0-1.25.25l-.29-1a3.73,3.73,0,0,1,1.63-.33,2.65,2.65,0,0,1,1.91.59,3.15,3.15,0,0,1,.61,2.25v1.22q0,1.14.46,1.43a.72.72,0,0,1-.37.35,1.48,1.48,0,0,1-.46.07.74.74,0,0,1-.52-.21A1.08,1.08,0,0,1,47.09,32.3ZM47,30.19a2.86,2.86,0,0,0-.51-.07q-1.57,0-1.57,1,0,.77.89.77a1.06,1.06,0,0,0,1.2-1.2Z"/><path d="M53.39,32.87v-.35a1.35,1.35,0,0,1-.56.32A2.48,2.48,0,0,1,52,33a2.4,2.4,0,0,1-1.87-.76,3,3,0,0,1-.68-2.11,3.11,3.11,0,0,1,.78-2.2,2.56,2.56,0,0,1,2-.85,2.6,2.6,0,0,1,1.18.27V25.06l1.33-.32v8.13Zm0-4.33a1.4,1.4,0,0,0-.89-.34,1.55,1.55,0,0,0-1.23.49,2,2,0,0,0-.43,1.4q0,1.78,1.71,1.78a1.29,1.29,0,0,0,.47-.11.86.86,0,0,0,.36-.23Z"/><path d="M61.13,30.43H57.06a1.44,1.44,0,0,0,.47,1.06,1.7,1.7,0,0,0,1.16.38,1.87,1.87,0,0,0,1.38-.47l.52,1a3.28,3.28,0,0,1-2.09.57,2.77,2.77,0,0,1-2.06-.76,2.89,2.89,0,0,1-.76-2.13,3,3,0,0,1,.83-2.18,2.92,2.92,0,0,1,4-.1,2.53,2.53,0,0,1,.75,1.88A3.71,3.71,0,0,1,61.13,30.43Zm-4-1h2.8a1.25,1.25,0,0,0-1.38-1.25A1.37,1.37,0,0,0,57.11,29.43Z"/><path d="M62.53,25.06l1.33-.32v6.4q0,1.05.63,1.25a1.09,1.09,0,0,1-1.05.58q-.9,0-.9-1.25Z"/><path d="M66.74,32.73v2.38H65.41V27.18h1.33v.38A1.69,1.69,0,0,1,68,27.07q2.72,0,2.72,3a2.92,2.92,0,0,1-.75,2.15,2.77,2.77,0,0,1-2.05.76A2.59,2.59,0,0,1,66.74,32.73Zm0-4.16v3a1.3,1.3,0,0,0,.85.29,1.72,1.72,0,0,0,1.32-.44A2,2,0,0,0,69.3,30a2,2,0,0,0-.4-1.42,1.78,1.78,0,0,0-1.32-.41A1.17,1.17,0,0,0,66.74,28.57Z"/><path d="M75.55,32.87V29.36a1.12,1.12,0,0,0-.33-.85,1.19,1.19,0,0,0-.86-.32,1.41,1.41,0,0,0-.66.18,1.22,1.22,0,0,0-.48.41v4.09H71.86V25.06l1.35-.32v2.8a2,2,0,0,1,1.42-.47,2.24,2.24,0,0,1,1.66.59,2.3,2.3,0,0,1,.59,1.7v3.51Z"/><path d="M78.67,32.87v-4.6h-.73V27.18H80v5.69Zm.69-7.9a.77.77,0,1,1-.54.23A.74.74,0,0,1,79.36,25Z"/><path d="M84.73,32.3a1.29,1.29,0,0,1-.63.49,2.4,2.4,0,0,1-.94.19,2.12,2.12,0,0,1-1.45-.46,1.64,1.64,0,0,1-.53-1.31,1.83,1.83,0,0,1,.74-1.55A3.45,3.45,0,0,1,84,29.11a2.32,2.32,0,0,1,.55.08q0-1-1.27-1a2.82,2.82,0,0,0-1.25.25l-.29-1a3.73,3.73,0,0,1,1.63-.33,2.65,2.65,0,0,1,1.91.59,3.15,3.15,0,0,1,.61,2.25v1.22q0,1.14.46,1.43a.71.71,0,0,1-.37.35,1.47,1.47,0,0,1-.46.07.74.74,0,0,1-.52-.21A1.09,1.09,0,0,1,84.73,32.3Zm-.13-2.11a2.86,2.86,0,0,0-.51-.07q-1.57,0-1.57,1,0,.77.89.77a1.06,1.06,0,0,0,1.2-1.2Z"/><path d="M28,19l-.34.67a1.2,1.2,0,0,0-.88-.27,1.13,1.13,0,0,0-.94.48,2,2,0,0,0-.37,1.22,1.84,1.84,0,0,0,.34,1.17,1.1,1.1,0,0,0,.91.43,1.22,1.22,0,0,0,1-.46l.38.66a1.91,1.91,0,0,1-1.46.53,1.84,1.84,0,0,1-1.49-.63A2.6,2.6,0,0,1,24.63,21a2.51,2.51,0,0,1,.59-1.7,1.91,1.91,0,0,1,1.51-.68A2.2,2.2,0,0,1,28,19Z"/><path d="M28.94,23.3V20.58h-.43v-.64h1.22V23.3Zm.4-4.65a.45.45,0,1,1-.32.13A.44.44,0,0,1,29.34,18.64Z"/><path d="M30.76,20.57h-.39v-.63h.39v-.68l.78-.29v1h.92v.63h-.92V22a.87.87,0,0,0,.11.51.47.47,0,0,0,.39.15,1,1,0,0,0,.53-.15v.72a2.49,2.49,0,0,1-.78.09,1,1,0,0,1-.77-.28,1.12,1.12,0,0,1-.27-.81Z"/><path d="M34.67,23.83a1.08,1.08,0,0,1-.54.56,2,2,0,0,1-1,.22v-.69q.91,0,.91-.45a2.8,2.8,0,0,0-.25-.92l-1-2.6h.81l.91,2.32.82-2.32h.81Z"/><path d="M37.46,21.61a1.77,1.77,0,0,1,.44-1.25,1.7,1.7,0,0,1,2.36,0,2.11,2.11,0,0,1,0,2.54,1.71,1.71,0,0,1-2.37,0A1.84,1.84,0,0,1,37.46,21.61Zm.81,0q0,1.11.8,1.11a.69.69,0,0,0,.58-.29,1.35,1.35,0,0,0,.21-.82q0-1.09-.8-1.09a.69.69,0,0,0-.58.29A1.32,1.32,0,0,0,38.27,21.61Z"/><path d="M43.18,19.28a1.39,1.39,0,0,0-.39-.08.47.47,0,0,0-.38.19.72.72,0,0,0-.15.47s0,.05,0,.08h.7v.65h-.68V23.3h-.78V20.59H41v-.65h.49a1.53,1.53,0,0,1,.37-1,1.12,1.12,0,0,1,.88-.38,2.41,2.41,0,0,1,.68.12Z"/><path d="M11.83,28.38c.08.85.25,2.17.36,2.67,5.27,1.39,8.89.71,9.73.13.63-.43,1-.65.19-2.41-1.91.79-5.87.73-10.28-.39"/><path d="M1.32,23C-.35,24.1-.13,24.7.33,25.3c1.13,1.46,4.18,3.65,9.74,5.2l1.26.34c-.09-.44-.29-1.85-.38-2.7C6.31,26.83,2.62,24.71,1.32,23"/>
	</symbol>

</svg>